<svg width="589" height="1917" viewBox="0 0 589 1917" fill="none" xmlns="http://www.w3.org/2000/svg">
<circle r="302.619" transform="matrix(-0.787162 -0.616746 -0.616746 0.787162 958.432 958.497)" stroke="#FBB911" stroke-opacity="0.15" stroke-width="5.14673" stroke-linecap="square" stroke-linejoin="round" stroke-dasharray="102.93 102.93"/>
<circle r="302.619" transform="matrix(-0.912167 -0.409819 -0.409819 0.912167 958.427 958.496)" stroke="#FBB911" stroke-opacity="0.15" stroke-width="5.14673" stroke-linecap="square" stroke-linejoin="round" stroke-dasharray="51.47 51.47"/>
<circle r="302.619" transform="matrix(-0.834885 -0.550424 -0.550424 0.834885 958.427 958.496)" stroke="#FBB911" stroke-opacity="0.15" stroke-width="5.14672" stroke-linecap="square" stroke-linejoin="round" stroke-dasharray="10.29 10.29"/>
<circle r="422.694" transform="matrix(-0.787162 -0.616746 -0.616746 0.787162 958.432 958.497)" stroke="#FBB911" stroke-opacity="0.15" stroke-width="10.2935"/>
<mask id="path-5-inside-1_1_943" fill="white">
<path d="M495.65 552.436C594.53 439.744 731.132 367.004 879.827 347.863C1028.52 328.722 1179.09 364.496 1303.29 448.472L1233.77 551.292C1134.61 484.245 1014.39 455.683 895.674 470.966C776.955 486.248 667.892 544.324 588.946 634.297L495.65 552.436Z"/>
</mask>
<path d="M495.65 552.436C594.53 439.744 731.132 367.004 879.827 347.863C1028.52 328.722 1179.09 364.496 1303.29 448.472L1233.77 551.292C1134.61 484.245 1014.39 455.683 895.674 470.966C776.955 486.248 667.892 544.324 588.946 634.297L495.65 552.436Z" stroke="#FBB911" stroke-opacity="0.15" stroke-width="7.5882" mask="url(#path-5-inside-1_1_943)"/>
<mask id="path-6-inside-2_1_943" fill="white">
<path d="M550.211 1419.37C437.982 1319.97 365.881 1183.03 347.434 1034.25C328.987 885.462 365.463 735.061 450.018 611.258L552.512 681.259C485.004 780.104 455.881 900.185 470.609 1018.97C485.337 1137.76 542.903 1247.1 632.507 1326.46L550.211 1419.37Z"/>
</mask>
<path d="M550.211 1419.37C437.982 1319.97 365.881 1183.03 347.434 1034.25C328.987 885.462 365.463 735.061 450.018 611.258L552.512 681.259C485.004 780.104 455.881 900.185 470.609 1018.97C485.337 1137.76 542.903 1247.1 632.507 1326.46L550.211 1419.37Z" stroke="#FBB911" stroke-opacity="0.15" stroke-width="7.5882" mask="url(#path-6-inside-2_1_943)"/>
</svg>
