<svg width="62" height="35" viewBox="0 0 62 35" fill="none" xmlns="http://www.w3.org/2000/svg">
<path d="M12.4331 6.23941L29.6799 23.839L28.0089 28.852L18.6266 19.3165L14.8553 15.4839L13.1536 20.5889L9.45895 31.6881L4.49185 31.6422L12.4331 6.23941ZM10.9307 0L0 34.8923L11.8199 34.9996L16.281 21.6161L29.4347 34.9996L33.4513 22.9651L10.9307 0Z" fill="white"/>
<path d="M52.4613 3.31134L57.4284 3.3573L49.4718 28.7601L32.2249 11.1606L33.896 6.14749L43.2783 15.6831L47.0496 19.5158L48.7513 14.4107L52.4613 3.31134ZM50.085 0L45.6238 13.3835L32.4702 0L28.4536 12.0345L50.9742 34.9996L61.9049 0.107194L50.085 0Z" fill="white"/>
</svg>
