<svg width="1017" height="1014" viewBox="0 0 1017 1014" fill="none" xmlns="http://www.w3.org/2000/svg">
<g opacity="0.03" filter="url(#filter0_d_1_738)">
<mask id="mask0_1_738" style="mask-type:alpha" maskUnits="userSpaceOnUse" x="469" y="259" width="286" height="285">
<path opacity="0.5" d="M752.972 379.633C747.219 342.596 727.095 309.32 696.965 287.025C666.836 264.73 629.13 255.213 592.029 260.54C554.928 265.867 521.423 285.607 498.783 315.478C476.143 345.35 466.194 382.943 471.094 420.103C475.994 457.263 495.348 490.993 524.957 513.974C554.566 536.956 592.042 547.337 629.256 542.865C666.47 538.392 700.42 519.428 723.74 490.085C747.061 460.742 757.872 423.387 753.828 386.124L740.862 387.531C744.536 421.381 734.715 455.314 713.53 481.97C692.346 508.625 661.505 525.853 627.7 529.916C593.895 533.978 559.851 524.549 532.954 503.672C506.056 482.795 488.475 452.155 484.024 418.398C479.573 384.642 488.611 350.492 509.177 323.356C529.744 296.221 560.18 278.289 593.883 273.45C627.586 268.611 661.837 277.256 689.208 297.509C716.578 317.762 734.858 347.99 740.084 381.635L752.972 379.633Z" fill="white"/>
</mask>
<g mask="url(#mask0_1_738)">
<line x1="305.498" y1="747.283" x2="921.533" y2="50.8798" stroke="white" stroke-width="2.05869" stroke-linecap="round" stroke-linejoin="round"/>
<line x1="961.806" y1="708.551" x2="265.404" y2="92.517" stroke="white" stroke-width="2.05869" stroke-linecap="round" stroke-linejoin="round"/>
<line x1="405.962" y1="815.361" x2="820.764" y2="-16.7534" stroke="white" stroke-width="2.05869" stroke-linecap="round" stroke-linejoin="round"/>
<line x1="1029.88" y1="608.085" x2="197.768" y2="193.284" stroke="white" stroke-width="2.05869" stroke-linecap="round" stroke-linejoin="round"/>
<line x1="516.83" y1="854.32" x2="709.726" y2="-55.2212" stroke="white" stroke-width="2.05869" stroke-linecap="round" stroke-linejoin="round"/>
<line x1="1068.84" y1="497.218" x2="159.302" y2="304.322" stroke="white" stroke-width="2.05869" stroke-linecap="round" stroke-linejoin="round"/>
<line x1="228.73" y1="659.504" x2="998.69" y2="138.318" stroke="white" stroke-width="2.05869" stroke-linecap="round" stroke-linejoin="round"/>
<line x1="874.027" y1="785.32" x2="352.841" y2="15.3599" stroke="white" stroke-width="2.05869" stroke-linecap="round" stroke-linejoin="round"/>
<line x1="177.485" y1="558.903" x2="1050.38" y2="238.692" stroke="white" stroke-width="2.05869" stroke-linecap="round" stroke-linejoin="round"/>
<line x1="773.425" y1="836.564" x2="453.214" y2="-36.3274" stroke="white" stroke-width="2.05869" stroke-linecap="round" stroke-linejoin="round"/>
</g>
<circle cx="611.496" cy="402.516" r="175.383" transform="rotate(-3.50417 611.496 402.516)" stroke="white" stroke-width="5.14673" stroke-linecap="square" stroke-linejoin="round" stroke-dasharray="102.93 102.93"/>
<circle cx="611.498" cy="402.517" r="175.383" transform="rotate(10.3813 611.498 402.517)" stroke="white" stroke-width="5.14673" stroke-linecap="square" stroke-linejoin="round" stroke-dasharray="51.47 51.47"/>
<circle cx="611.498" cy="402.517" r="175.383" transform="rotate(1.17863 611.498 402.517)" stroke="white" stroke-width="5.14672" stroke-linecap="square" stroke-linejoin="round" stroke-dasharray="10.29 10.29"/>
<circle cx="609.647" cy="398.647" r="242.808" transform="rotate(-3.50417 609.647 398.647)" stroke="white" stroke-width="10.2935"/>
<ellipse cx="347.013" cy="418.751" rx="8.16437" ry="8.16437" transform="rotate(-3.50417 347.013 418.751)" fill="white"/>
<ellipse cx="875.799" cy="386.371" rx="8.16437" ry="8.16437" transform="rotate(-3.50417 875.799 386.371)" fill="white"/>
<ellipse cx="627.597" cy="666.954" rx="8.16437" ry="8.16437" transform="rotate(-93.5042 627.597 666.954)" fill="white"/>
<ellipse cx="595.216" cy="138.168" rx="8.16437" ry="8.16437" transform="rotate(-93.5042 595.216 138.168)" fill="white"/>
<circle cx="430.781" cy="601.277" r="4.53576" transform="rotate(-48.5042 430.781 601.277)" fill="white" fill-opacity="0.5"/>
<circle cx="781.791" cy="204.472" r="4.53576" transform="rotate(-48.5042 781.791 204.472)" fill="white" fill-opacity="0.5"/>
<circle cx="810.127" cy="583.189" r="4.53576" transform="rotate(-138.504 810.127 583.189)" fill="white" fill-opacity="0.5"/>
<circle cx="413.322" cy="232.177" r="4.53576" transform="rotate(-138.504 413.322 232.177)" fill="white" fill-opacity="0.5"/>
<mask id="path-24-inside-1_1_738" fill="white">
<path d="M965.88 360.948C955.758 274.652 914.495 195.014 849.834 136.977C785.172 78.9395 701.556 46.4902 614.671 45.717L614.031 117.647C683.4 118.264 750.159 144.172 801.785 190.509C853.411 236.846 886.355 300.429 894.437 369.328L965.88 360.948Z"/>
</mask>
<path d="M965.88 360.948C955.758 274.652 914.495 195.014 849.834 136.977C785.172 78.9395 701.556 46.4902 614.671 45.717L614.031 117.647C683.4 118.264 750.159 144.172 801.785 190.509C853.411 236.846 886.355 300.429 894.437 369.328L965.88 360.948Z" stroke="white" stroke-width="7.5882" mask="url(#path-24-inside-1_1_738)"/>
<mask id="path-25-inside-2_1_738" fill="white">
<path d="M654.72 756.701C740.968 746.176 820.412 704.542 878.147 639.611C935.882 574.679 967.941 490.912 968.308 404.025L896.376 403.721C896.083 473.091 870.487 539.971 824.391 591.813C778.295 643.655 714.867 676.895 646.007 685.298L654.72 756.701Z"/>
</mask>
<path d="M654.72 756.701C740.968 746.176 820.412 704.542 878.147 639.611C935.882 574.679 967.941 490.912 968.308 404.025L896.376 403.721C896.083 473.091 870.487 539.971 824.391 591.813C778.295 643.655 714.867 676.895 646.007 685.298L654.72 756.701Z" stroke="white" stroke-width="7.5882" mask="url(#path-25-inside-2_1_738)"/>
<mask id="path-26-inside-3_1_738" fill="white">
<path d="M257.555 447.651C268.55 533.84 310.616 613.056 375.861 670.436C441.106 727.817 525.047 759.419 611.934 759.313L611.847 687.38C542.476 687.465 475.457 662.234 423.366 616.421C371.274 570.608 337.688 507.362 328.91 438.549L257.555 447.651Z"/>
</mask>
<path d="M257.555 447.651C268.55 533.84 310.616 613.056 375.861 670.436C441.106 727.817 525.047 759.419 611.934 759.313L611.847 687.38C542.476 687.465 475.457 662.234 423.366 616.421C371.274 570.608 337.688 507.362 328.91 438.549L257.555 447.651Z" stroke="white" stroke-width="7.5882" mask="url(#path-26-inside-3_1_738)"/>
<mask id="path-27-inside-4_1_738" fill="white">
<path d="M566.033 48.5953C479.854 59.6669 400.676 101.804 343.353 167.1C286.031 232.396 254.504 316.365 254.687 403.252L326.62 403.101C326.474 333.729 351.645 266.689 397.411 214.556C443.177 162.423 506.393 128.781 575.199 119.942L566.033 48.5953Z"/>
</mask>
<path d="M566.033 48.5953C479.854 59.6669 400.676 101.804 343.353 167.1C286.031 232.396 254.504 316.365 254.687 403.252L326.62 403.101C326.474 333.729 351.645 266.689 397.411 214.556C443.177 162.423 506.393 128.781 575.199 119.942L566.033 48.5953Z" stroke="white" stroke-width="7.5882" mask="url(#path-27-inside-4_1_738)"/>
<circle cx="611.498" cy="402.517" r="140.461" transform="rotate(-3.50417 611.498 402.517)" stroke="white" stroke-width="5.37856"/>
<path d="M816.363 402.498C815.787 403.268 814.761 403.919 813.665 404.187C812.561 404.458 811.617 404.294 811.037 403.78L804.654 398.134C800.822 394.744 800.464 388.89 803.854 385.057L809.239 378.969C809.709 378.438 810.574 378.161 811.675 378.258C812.763 378.354 813.848 378.804 814.532 379.409C815.244 380.039 815.395 380.712 815.242 381.414C815.073 382.191 814.506 383.076 813.613 383.889C812.408 384.986 811.13 386.255 810.16 387.491C809.675 388.109 809.246 388.743 808.942 389.364C808.645 389.972 808.424 390.654 808.466 391.338C808.509 392.038 808.824 392.703 809.208 393.282C809.6 393.875 810.123 394.466 810.7 395.032C811.856 396.165 813.326 397.292 814.681 398.243C815.686 398.948 816.384 399.71 816.683 400.429C816.95 401.069 816.935 401.733 816.363 402.498Z" stroke="white" stroke-width="2.05869"/>
<path d="M407.14 404.128C407.716 403.358 408.742 402.707 409.838 402.439C410.942 402.168 411.886 402.332 412.466 402.845L418.849 408.492C422.681 411.882 423.039 417.736 419.649 421.569L414.264 427.657C413.794 428.188 412.93 428.465 411.828 428.368C410.74 428.272 409.655 427.822 408.971 427.217C408.259 426.587 408.108 425.914 408.261 425.212C408.43 424.435 408.997 423.55 409.89 422.737C411.095 421.64 412.373 420.37 413.343 419.135C413.829 418.517 414.257 417.883 414.561 417.262C414.859 416.654 415.079 415.972 415.037 415.288C414.994 414.588 414.679 413.923 414.295 413.344C413.903 412.751 413.381 412.16 412.803 411.594C411.647 410.46 410.177 409.334 408.822 408.383C407.817 407.678 407.119 406.916 406.82 406.197C406.553 405.557 406.568 404.893 407.14 404.128Z" stroke="white" stroke-width="2.05869"/>
<path d="M612.567 607.925C611.797 607.349 611.146 606.323 610.878 605.228C610.607 604.123 610.771 603.179 611.284 602.599L616.931 596.216C620.321 592.384 626.175 592.026 630.008 595.416L636.096 600.802C636.627 601.271 636.904 602.136 636.807 603.237C636.711 604.325 636.261 605.41 635.656 606.094C635.026 606.806 634.353 606.957 633.651 606.804C632.874 606.635 631.989 606.068 631.176 605.175C630.079 603.97 628.809 602.692 627.574 601.722C626.956 601.237 626.322 600.808 625.701 600.504C625.093 600.207 624.411 599.986 623.727 600.028C623.027 600.071 622.362 600.386 621.783 600.77C621.19 601.162 620.599 601.685 620.033 602.262C618.899 603.418 617.773 604.888 616.822 606.243C616.117 607.248 615.355 607.946 614.636 608.246C613.996 608.512 613.332 608.497 612.567 607.925Z" stroke="white" stroke-width="2.05869"/>
<path d="M610.937 198.701C611.707 199.276 612.358 200.303 612.627 201.398C612.897 202.502 612.733 203.446 612.22 204.027L606.574 210.409C603.184 214.242 597.329 214.6 593.497 211.21L587.408 205.824C586.877 205.355 586.6 204.49 586.697 203.389C586.793 202.301 587.243 201.216 587.848 200.532C588.478 199.819 589.151 199.669 589.853 199.822C590.63 199.991 591.515 200.558 592.328 201.451C593.425 202.656 594.695 203.933 595.93 204.904C596.548 205.389 597.182 205.818 597.803 206.122C598.412 206.419 599.093 206.64 599.777 206.598C600.477 206.555 601.142 206.239 601.721 205.856C602.314 205.464 602.905 204.941 603.471 204.364C604.605 203.208 605.731 201.738 606.682 200.383C607.387 199.377 608.149 198.68 608.868 198.38C609.508 198.113 610.172 198.129 610.937 198.701Z" stroke="white" stroke-width="2.05869"/>
<path d="M757.011 547.419C756.059 547.557 754.873 547.291 753.908 546.707C752.936 546.117 752.385 545.333 752.338 544.56L751.817 536.055C751.504 530.948 755.39 526.554 760.497 526.242L768.611 525.745C769.318 525.701 770.126 526.117 770.836 526.964C771.537 527.801 771.986 528.887 772.042 529.798C772.1 530.748 771.731 531.33 771.126 531.718C770.458 532.148 769.431 532.372 768.225 532.316C766.596 532.24 764.796 532.234 763.236 532.422C762.456 532.515 761.704 532.661 761.05 532.885C760.41 533.105 759.772 533.431 759.318 533.944C758.853 534.469 758.606 535.163 758.467 535.843C758.326 536.539 758.278 537.327 758.285 538.136C758.301 539.755 758.544 541.591 758.83 543.221C759.042 544.431 758.997 545.463 758.7 546.183C758.436 546.824 757.956 547.283 757.011 547.419Z" stroke="white" stroke-width="2.05869"/>
<path d="M466.493 259.207C467.445 259.069 468.631 259.335 469.595 259.919C470.567 260.509 471.119 261.293 471.166 262.066L471.687 270.571C472 275.678 468.113 280.072 463.006 280.384L454.893 280.881C454.185 280.925 453.378 280.51 452.668 279.662C451.967 278.825 451.517 277.739 451.462 276.828C451.403 275.878 451.773 275.296 452.377 274.908C453.046 274.478 454.073 274.254 455.279 274.31C456.907 274.386 458.708 274.392 460.268 274.205C461.048 274.111 461.8 273.965 462.454 273.741C463.094 273.521 463.732 273.195 464.186 272.682C464.651 272.157 464.898 271.464 465.036 270.783C465.178 270.087 465.226 269.299 465.218 268.49C465.203 266.872 464.96 265.035 464.674 263.405C464.462 262.195 464.507 261.164 464.803 260.443C465.067 259.802 465.548 259.343 466.493 259.207Z" stroke="white" stroke-width="2.05869"/>
<path d="M467.645 548.572C467.508 547.62 467.773 546.434 468.358 545.47C468.947 544.498 469.731 543.947 470.504 543.899L479.01 543.378C484.117 543.066 488.51 546.952 488.823 552.059L489.32 560.173C489.363 560.88 488.948 561.687 488.1 562.398C487.263 563.099 486.178 563.548 485.267 563.604C484.317 563.662 483.735 563.293 483.346 562.688C482.917 562.019 482.692 560.992 482.749 559.786C482.825 558.158 482.83 556.357 482.643 554.797C482.549 554.017 482.404 553.265 482.179 552.611C481.96 551.971 481.634 551.333 481.12 550.879C480.595 550.415 479.902 550.167 479.221 550.029C478.525 549.887 477.737 549.839 476.929 549.847C475.31 549.863 473.474 550.105 471.843 550.391C470.634 550.604 469.602 550.558 468.882 550.262C468.24 549.998 467.782 549.517 467.645 548.572Z" stroke="white" stroke-width="2.05869"/>
<path d="M755.857 258.054C755.995 259.006 755.729 260.192 755.145 261.156C754.555 262.128 753.771 262.68 752.998 262.727L744.493 263.248C739.386 263.56 734.992 259.674 734.68 254.567L734.183 246.453C734.139 245.746 734.554 244.939 735.402 244.228C736.239 243.527 737.325 243.078 738.236 243.022C739.186 242.964 739.768 243.334 740.156 243.938C740.586 244.607 740.81 245.634 740.754 246.84C740.678 248.468 740.672 250.269 740.86 251.829C740.953 252.609 741.099 253.361 741.323 254.015C741.543 254.655 741.869 255.293 742.382 255.747C742.907 256.211 743.601 256.459 744.281 256.597C744.977 256.739 745.765 256.787 746.574 256.779C748.192 256.763 750.029 256.521 751.659 256.235C752.869 256.022 753.9 256.068 754.621 256.364C755.262 256.628 755.721 257.109 755.857 258.054Z" stroke="white" stroke-width="2.05869"/>
<path d="M789.359 504.912C788.475 505.291 787.261 505.341 786.178 505.026C785.087 504.708 784.351 504.094 784.105 503.359L781.401 495.278C779.777 490.427 782.394 485.177 787.246 483.553L794.954 480.973C795.626 480.748 796.514 480.94 797.419 481.575C798.313 482.202 799.028 483.135 799.318 484C799.62 484.902 799.414 485.56 798.93 486.092C798.395 486.68 797.462 487.163 796.282 487.42C794.69 487.768 792.949 488.229 791.49 488.814C790.761 489.106 790.073 489.441 789.499 489.827C788.937 490.205 788.406 490.685 788.1 491.298C787.787 491.926 787.728 492.66 787.77 493.353C787.814 494.062 787.971 494.835 788.188 495.615C788.622 497.174 789.331 498.885 790.03 500.386C790.548 501.499 790.771 502.507 790.671 503.28C790.582 503.968 790.237 504.535 789.359 504.912Z" stroke="white" stroke-width="2.05869"/>
<path d="M434.145 301.711C435.029 301.332 436.243 301.282 437.326 301.597C438.418 301.915 439.153 302.529 439.399 303.263L442.103 311.344C443.727 316.196 441.11 321.446 436.259 323.07L428.55 325.65C427.878 325.875 426.99 325.683 426.085 325.048C425.191 324.42 424.476 323.488 424.187 322.623C423.885 321.72 424.091 321.063 424.574 320.531C425.109 319.943 426.043 319.46 427.222 319.202C428.815 318.854 430.556 318.394 432.014 317.809C432.743 317.517 433.432 317.182 434.005 316.796C434.567 316.418 435.099 315.938 435.404 315.325C435.717 314.697 435.777 313.963 435.734 313.27C435.691 312.561 435.534 311.788 435.317 311.008C434.883 309.449 434.173 307.738 433.475 306.237C432.956 305.124 432.733 304.115 432.833 303.343C432.922 302.655 433.268 302.088 434.145 301.711Z" stroke="white" stroke-width="2.05869"/>
<path d="M510.153 580.919C509.773 580.035 509.723 578.82 510.038 577.738C510.356 576.646 510.97 575.911 511.705 575.665L519.786 572.96C524.638 571.337 529.887 573.953 531.511 578.805L534.091 586.514C534.316 587.186 534.124 588.073 533.489 588.979C532.862 589.873 531.93 590.588 531.064 590.877C530.162 591.179 529.504 590.973 528.972 590.49C528.384 589.955 527.901 589.021 527.644 587.842C527.296 586.249 526.835 584.508 526.25 583.05C525.958 582.321 525.623 581.632 525.237 581.059C524.859 580.497 524.379 579.965 523.766 579.659C523.138 579.347 522.405 579.287 521.711 579.33C521.002 579.373 520.229 579.53 519.45 579.747C517.89 580.181 516.179 580.891 514.679 581.589C513.565 582.107 512.557 582.331 511.784 582.231C511.096 582.142 510.529 581.796 510.153 580.919Z" stroke="white" stroke-width="2.05869"/>
<path d="M713.352 225.704C713.732 226.588 713.782 227.803 713.467 228.885C713.149 229.977 712.535 230.712 711.8 230.958L703.719 233.663C698.867 235.287 693.618 232.67 691.994 227.818L689.414 220.109C689.189 219.437 689.381 218.55 690.016 217.644C690.643 216.751 691.575 216.036 692.441 215.746C693.343 215.444 694.001 215.65 694.533 216.133C695.121 216.668 695.603 217.602 695.861 218.782C696.209 220.374 696.67 222.115 697.254 223.573C697.547 224.302 697.882 224.991 698.268 225.565C698.646 226.126 699.126 226.658 699.739 226.964C700.367 227.277 701.1 227.336 701.794 227.293C702.503 227.25 703.276 227.093 704.055 226.876C705.615 226.442 707.326 225.732 708.826 225.034C709.94 224.516 710.948 224.293 711.721 224.392C712.409 224.481 712.976 224.827 713.352 225.704Z" stroke="white" stroke-width="2.05869"/>
<path d="M665.495 600.741C664.601 600.384 663.707 599.561 663.164 598.572C662.617 597.576 662.532 596.622 662.877 595.928L666.679 588.302C668.961 583.723 674.524 581.861 679.103 584.144L686.378 587.77C687.012 588.086 687.504 588.85 687.695 589.939C687.884 591.014 687.73 592.179 687.323 592.996C686.898 593.847 686.288 594.167 685.57 594.201C684.776 594.239 683.774 593.92 682.758 593.268C681.386 592.388 679.829 591.483 678.384 590.865C677.662 590.556 676.938 590.306 676.26 590.173C675.595 590.044 674.88 590.007 674.23 590.224C673.565 590.447 673.004 590.924 672.544 591.444C672.073 591.976 671.638 592.634 671.24 593.338C670.444 594.748 669.737 596.46 669.169 598.015C668.748 599.168 668.193 600.039 667.576 600.515C667.027 600.938 666.381 601.095 665.495 600.741Z" stroke="white" stroke-width="2.05869"/>
<path d="M558.005 205.882C558.899 206.239 559.793 207.062 560.336 208.05C560.883 209.047 560.968 210.001 560.623 210.695L556.821 218.321C554.539 222.9 548.976 224.762 544.397 222.479L537.122 218.853C536.488 218.537 535.996 217.773 535.805 216.684C535.616 215.609 535.77 214.444 536.177 213.627C536.602 212.775 537.212 212.456 537.93 212.422C538.724 212.384 539.726 212.703 540.742 213.355C542.114 214.235 543.671 215.14 545.116 215.758C545.838 216.067 546.562 216.317 547.24 216.45C547.905 216.579 548.62 216.616 549.27 216.399C549.935 216.176 550.496 215.699 550.956 215.179C551.427 214.647 551.862 213.989 552.26 213.284C553.056 211.875 553.763 210.163 554.331 208.608C554.752 207.454 555.307 206.584 555.924 206.108C556.473 205.685 557.119 205.528 558.005 205.882Z" stroke="white" stroke-width="2.05869"/>
<path d="M414.323 457.057C414.679 456.163 415.502 455.269 416.491 454.726C417.487 454.179 418.442 454.094 419.135 454.439L426.762 458.241C431.341 460.523 433.202 466.086 430.92 470.665L427.293 477.94C426.977 478.574 426.214 479.066 425.125 479.257C424.049 479.446 422.884 479.292 422.068 478.885C421.216 478.46 420.897 477.849 420.862 477.132C420.825 476.338 421.144 475.336 421.796 474.32C422.676 472.948 423.581 471.391 424.199 469.946C424.507 469.224 424.757 468.5 424.89 467.822C425.02 467.157 425.057 466.442 424.839 465.792C424.617 465.127 424.14 464.566 423.619 464.106C423.087 463.635 422.429 463.2 421.725 462.802C420.315 462.006 418.604 461.299 417.049 460.731C415.895 460.31 415.024 459.755 414.549 459.138C414.125 458.589 413.968 457.943 414.323 457.057Z" stroke="white" stroke-width="2.05869"/>
<path d="M809.181 349.567C808.824 350.46 808.001 351.354 807.013 351.897C806.016 352.444 805.062 352.53 804.369 352.184L796.742 348.382C792.163 346.1 790.301 340.537 792.584 335.958L796.211 328.683C796.527 328.049 797.29 327.557 798.379 327.366C799.455 327.177 800.619 327.331 801.436 327.738C802.288 328.163 802.607 328.774 802.641 329.491C802.679 330.285 802.36 331.287 801.708 332.303C800.828 333.675 799.923 335.232 799.305 336.677C798.996 337.399 798.746 338.123 798.614 338.801C798.484 339.466 798.447 340.181 798.665 340.831C798.887 341.496 799.364 342.057 799.884 342.517C800.416 342.988 801.074 343.423 801.779 343.821C803.188 344.617 804.9 345.325 806.455 345.892C807.609 346.313 808.479 346.868 808.955 347.485C809.379 348.034 809.535 348.68 809.181 349.567Z" stroke="white" stroke-width="2.05869"/>
<path d="M809.605 455.482C808.85 456.077 807.69 456.44 806.562 456.416C805.426 456.392 804.556 455.989 804.129 455.343L799.425 448.237C796.601 443.971 797.77 438.223 802.036 435.398L808.814 430.911C809.405 430.52 810.312 430.476 811.351 430.855C812.377 431.229 813.308 431.945 813.812 432.706C814.338 433.499 814.309 434.188 813.979 434.827C813.615 435.533 812.838 436.241 811.765 436.795C810.317 437.544 808.755 438.439 807.497 439.381C806.869 439.852 806.291 440.354 805.836 440.875C805.392 441.386 805.002 441.987 804.866 442.659C804.726 443.346 804.859 444.07 805.079 444.729C805.304 445.402 805.656 446.109 806.068 446.805C806.89 448.199 808.019 449.668 809.082 450.937C809.87 451.878 810.347 452.794 810.45 453.567C810.543 454.254 810.355 454.891 809.605 455.482Z" stroke="white" stroke-width="2.05869"/>
<path d="M413.903 351.142C414.658 350.547 415.818 350.184 416.946 350.208C418.082 350.233 418.952 350.636 419.379 351.281L424.083 358.387C426.907 362.653 425.738 368.401 421.472 371.226L414.694 375.713C414.103 376.104 413.196 376.148 412.157 375.769C411.131 375.395 410.2 374.679 409.696 373.918C409.171 373.125 409.199 372.436 409.529 371.797C409.893 371.091 410.67 370.383 411.743 369.829C413.191 369.081 414.753 368.185 416.011 367.243C416.639 366.772 417.218 366.27 417.672 365.749C418.116 365.238 418.506 364.637 418.643 363.965C418.782 363.278 418.65 362.554 418.429 361.896C418.204 361.222 417.852 360.516 417.441 359.819C416.618 358.425 415.489 356.956 414.426 355.687C413.638 354.746 413.161 353.83 413.058 353.058C412.966 352.37 413.153 351.733 413.903 351.142Z" stroke="white" stroke-width="2.05869"/>
<path d="M559.586 601.163C558.99 600.408 558.627 599.248 558.652 598.12C558.676 596.984 559.079 596.114 559.725 595.687L566.831 590.983C571.097 588.159 576.845 589.328 579.669 593.594L584.156 600.372C584.548 600.963 584.592 601.87 584.213 602.909C583.838 603.935 583.123 604.867 582.362 605.37C581.569 605.896 580.88 605.867 580.241 605.537C579.534 605.173 578.827 604.396 578.272 603.323C577.524 601.875 576.629 600.313 575.686 599.055C575.215 598.427 574.714 597.849 574.192 597.394C573.682 596.95 573.08 596.56 572.409 596.424C571.722 596.284 570.998 596.417 570.339 596.637C569.665 596.862 568.959 597.214 568.263 597.626C566.869 598.449 565.4 599.577 564.131 600.64C563.189 601.428 562.273 601.905 561.501 602.008C560.814 602.101 560.176 601.914 559.586 601.163Z" stroke="white" stroke-width="2.05869"/>
<path d="M663.924 205.461C664.519 206.216 664.882 207.376 664.858 208.504C664.834 209.64 664.431 210.51 663.785 210.937L656.679 215.641C652.413 218.465 646.665 217.296 643.84 213.03L639.353 206.252C638.962 205.661 638.918 204.754 639.297 203.715C639.671 202.689 640.387 201.758 641.148 201.254C641.941 200.729 642.63 200.757 643.269 201.087C643.975 201.451 644.683 202.228 645.237 203.301C645.986 204.749 646.881 206.311 647.823 207.569C648.294 208.197 648.796 208.776 649.318 209.23C649.828 209.674 650.429 210.064 651.101 210.2C651.788 210.34 652.512 210.208 653.171 209.987C653.844 209.762 654.551 209.41 655.247 208.999C656.641 208.176 658.11 207.047 659.379 205.984C660.321 205.196 661.237 204.719 662.009 204.616C662.696 204.524 663.333 204.711 663.924 205.461Z" stroke="white" stroke-width="2.05869"/>
<path d="M714.764 580.104C713.809 579.99 712.732 579.427 711.952 578.612C711.165 577.792 710.836 576.892 710.99 576.133L712.688 567.782C713.708 562.768 718.599 559.53 723.613 560.55L731.579 562.17C732.273 562.311 732.946 562.921 733.412 563.924C733.873 564.914 734.026 566.079 733.844 566.973C733.654 567.906 733.147 568.372 732.462 568.591C731.705 568.833 730.655 568.784 729.505 568.418C727.952 567.923 726.214 567.451 724.658 567.228C723.881 567.117 723.117 567.063 722.427 567.11C721.752 567.157 721.051 567.307 720.48 567.685C719.895 568.072 719.477 568.678 719.167 569.299C718.85 569.935 718.6 570.683 718.398 571.467C717.994 573.034 717.753 574.871 717.608 576.519C717.499 577.743 717.189 578.728 716.716 579.347C716.295 579.898 715.712 580.216 714.764 580.104Z" stroke="white" stroke-width="2.05869"/>
<path d="M508.74 226.52C509.695 226.634 510.772 227.197 511.552 228.011C512.339 228.832 512.668 229.732 512.514 230.491L510.816 238.842C509.796 243.856 504.905 247.094 499.891 246.074L491.925 244.454C491.231 244.313 490.558 243.703 490.092 242.7C489.631 241.71 489.478 240.545 489.66 239.651C489.85 238.718 490.357 238.252 491.042 238.033C491.799 237.791 492.849 237.84 493.999 238.206C495.552 238.701 497.29 239.173 498.846 239.396C499.623 239.507 500.387 239.561 501.077 239.514C501.752 239.467 502.453 239.317 503.024 238.939C503.609 238.552 504.027 237.946 504.337 237.325C504.654 236.689 504.904 235.941 505.106 235.157C505.51 233.59 505.751 231.753 505.896 230.104C506.005 228.881 506.315 227.896 506.788 227.277C507.209 226.726 507.792 226.407 508.74 226.52Z" stroke="white" stroke-width="2.05869"/>
<path d="M434.96 506.324C435.074 505.369 435.637 504.292 436.452 503.512C437.273 502.726 438.172 502.396 438.931 502.55L447.282 504.249C452.296 505.268 455.534 510.159 454.514 515.173L452.894 523.139C452.753 523.833 452.143 524.506 451.14 524.973C450.15 525.433 448.985 525.586 448.091 525.404C447.159 525.215 446.692 524.707 446.473 524.023C446.231 523.265 446.28 522.216 446.647 521.065C447.142 519.512 447.613 517.774 447.836 516.219C447.947 515.441 448.002 514.677 447.954 513.987C447.908 513.312 447.758 512.612 447.379 512.04C446.992 511.455 446.387 511.037 445.765 510.727C445.129 510.41 444.381 510.16 443.598 509.958C442.03 509.554 440.194 509.314 438.545 509.168C437.321 509.06 436.337 508.749 435.717 508.276C435.166 507.855 434.848 507.272 434.96 506.324Z" stroke="white" stroke-width="2.05869"/>
<path d="M788.545 300.3C788.431 301.255 787.868 302.332 787.053 303.112C786.232 303.898 785.333 304.228 784.574 304.074L776.223 302.375C771.209 301.356 767.971 296.465 768.991 291.451L770.611 283.485C770.752 282.791 771.362 282.118 772.365 281.651C773.355 281.191 774.52 281.038 775.414 281.22C776.347 281.409 776.813 281.917 777.032 282.601C777.274 283.359 777.225 284.408 776.858 285.559C776.364 287.112 775.892 288.85 775.669 290.405C775.558 291.183 775.504 291.947 775.551 292.636C775.598 293.312 775.747 294.012 776.126 294.584C776.513 295.168 777.118 295.587 777.74 295.897C778.376 296.214 779.124 296.464 779.907 296.666C781.475 297.07 783.312 297.31 784.96 297.456C786.184 297.564 787.169 297.875 787.788 298.348C788.339 298.769 788.657 299.352 788.545 300.3Z" stroke="white" stroke-width="2.05869"/>
<circle cx="611.499" cy="402.517" r="151.555" transform="rotate(-3.50417 611.499 402.517)" stroke="white" stroke-width="2.15142"/>
<circle cx="611.498" cy="402.517" r="147.131" transform="rotate(-3.50417 611.498 402.517)" stroke="white" stroke-width="2.15142"/>
<path d="M622.993 418.068C623.016 418.349 622.927 418.607 622.726 418.842C622.556 419.075 622.336 419.265 622.066 419.412C621.798 419.59 621.513 419.754 621.212 419.903C620.941 420.05 620.701 420.179 620.49 420.29C620.133 420.13 619.764 420.034 619.386 420.002C619.038 419.967 618.714 419.836 618.414 419.609L618.087 419.635C617.588 419.675 617.204 419.768 616.933 419.915C616.485 419.794 616.108 419.589 615.803 419.3C615.5 419.042 615.21 418.752 614.934 418.429C614.66 418.138 614.386 417.846 614.112 417.554C613.838 417.263 613.505 417.023 613.114 416.834C612.429 415.322 611.805 413.788 611.242 412.234C610.679 410.68 610.223 409.087 609.873 407.453C609.923 407.292 609.956 407.117 609.972 406.928C609.989 406.739 609.99 406.566 609.978 406.41C609.968 406.286 609.927 406.163 609.855 406.044C609.811 405.891 609.71 405.805 609.552 405.786C609.688 405.524 609.759 405.236 609.765 404.922C609.8 404.575 609.807 404.261 609.784 403.98C609.734 403.357 609.631 402.848 609.474 402.453C609.649 402.283 609.707 402.027 609.648 401.687C609.587 401.316 609.644 401.045 609.818 400.874C609.62 400.357 609.502 399.849 609.462 399.351C609.407 398.665 609.432 397.989 609.535 397.323C609.67 396.654 609.71 395.977 609.655 395.291C609.643 395.136 609.615 394.981 609.571 394.828C609.559 394.672 609.531 394.517 609.487 394.364C609.603 393.853 609.704 393.344 609.788 392.835C609.902 392.293 609.938 391.758 609.895 391.228C609.865 390.854 609.778 390.548 609.634 390.308C609.924 388.843 610.092 387.403 610.136 385.989C610.208 384.541 610.264 383.079 610.303 381.603C610.267 381.543 610.232 381.499 610.198 381.47C610.165 381.441 610.145 381.396 610.14 381.333C610.128 381.178 610.196 381.047 610.344 380.941C610.524 380.833 610.588 380.655 610.537 380.408C610.193 380.812 609.916 381.273 609.707 381.791C609.528 382.307 609.35 382.823 609.172 383.339C609.025 383.852 608.846 384.368 608.637 384.886C608.456 385.371 608.194 385.815 607.85 386.219C607.846 386.564 607.763 386.9 607.601 387.226C607.47 387.55 607.42 387.899 607.449 388.273C607.418 388.275 607.387 388.278 607.356 388.28C607.322 388.251 607.274 388.24 607.212 388.245C607.087 388.254 607 388.34 606.95 388.501C606.932 388.659 606.842 388.713 606.681 388.663C606.077 390.122 605.392 391.556 604.626 392.965C603.892 394.372 602.872 395.535 601.566 396.454C601.309 396.38 601.072 396.352 600.854 396.37C600.449 396.402 600.054 396.559 599.669 396.84C599.312 397.088 599.072 397.217 598.947 397.227C598.636 397.252 598.234 397.127 597.742 396.853C597.278 396.545 596.812 396.394 596.342 396.4C595.816 396.098 595.368 395.788 594.998 395.473C594.657 395.124 594.157 394.945 593.498 394.935C593.009 394.315 592.523 393.727 592.04 393.17C591.588 392.61 591.137 392.066 590.687 391.538C590.266 390.976 589.874 390.38 589.51 389.751C589.178 389.119 588.901 388.404 588.681 387.607C588.707 387.542 588.718 387.479 588.713 387.416C588.698 387.229 588.598 387.159 588.414 387.205C588.26 387.249 588.175 387.161 588.158 386.943L588.131 386.616C588.112 386.367 588.047 386.153 587.939 385.973C587.859 385.76 587.825 385.528 587.836 385.276C587.591 384.951 587.391 384.606 587.237 384.242C587.082 383.878 586.838 383.569 586.504 383.313L586.471 382.893C586.456 382.706 586.427 382.536 586.383 382.382C586.368 382.196 586.309 382.044 586.206 381.926C586.131 381.776 586.014 381.691 585.856 381.672C585.735 380.553 585.411 379.435 584.883 378.317C584.384 377.166 583.919 376.058 583.489 374.995C583.305 375.825 583.184 376.666 583.126 377.517C583.066 378.337 583.07 379.167 583.137 380.008L583.2 380.802C583.22 381.052 583.271 381.298 583.353 381.543C583.272 381.706 583.141 381.826 582.959 381.903C582.808 381.978 582.725 382.11 582.708 382.299C582.69 382.458 582.687 382.615 582.699 382.77C582.743 382.924 582.755 383.079 582.736 383.238C582.734 383.99 582.697 384.714 582.627 385.41C582.523 386.452 582.388 387.513 582.223 388.592C582.056 389.64 582.016 390.709 582.103 391.8C582.108 391.862 582.115 391.955 582.125 392.08C582.164 392.171 582.185 392.248 582.19 392.31C581.727 392.786 581.506 393.352 581.527 394.009C581.548 394.665 581.519 395.295 581.442 395.896C581.356 396.781 581.239 397.668 581.09 398.558C580.939 399.416 580.822 400.303 580.738 401.219C580.684 401.725 580.646 402.23 580.624 402.733C580.599 403.205 580.575 403.693 580.553 404.197C580.544 404.479 580.453 404.722 580.281 404.924C580.14 405.123 580.049 405.35 580.006 405.604C579.993 405.824 579.997 406.075 580.019 406.355C580.07 406.602 580.105 406.834 580.122 407.052C580.152 407.426 580.149 407.787 580.114 408.134C580.077 408.451 579.912 408.746 579.621 409.02C579.748 409.825 579.942 410.499 580.205 411.043C580.471 411.617 580.772 412.251 581.109 412.946L582.278 412.852L582.293 413.039C582.317 413.351 582.386 413.627 582.5 413.869C582.644 414.108 582.887 414.199 583.227 414.14C583.206 414.267 583.202 414.424 583.217 414.611C583.24 414.892 583.306 415.137 583.417 415.348C583.562 415.587 583.676 415.844 583.761 416.12C583.22 417.197 582.611 418.014 581.934 418.57C581.258 419.125 580.296 419.453 579.05 419.552L578.303 419.612C578.107 419.126 577.882 418.658 577.626 418.208C577.371 417.758 577.116 417.308 576.86 416.858C576.636 416.406 576.426 415.937 576.231 415.451C576.069 414.994 575.967 414.5 575.925 413.971C575.915 413.846 575.92 413.72 575.941 413.593C575.965 413.497 575.972 413.387 575.962 413.262C575.95 413.106 575.88 413.018 575.753 412.997C575.626 412.976 575.551 412.825 575.529 412.544C575.511 412.326 575.479 412.125 575.433 411.941C575.419 411.754 575.402 411.551 575.385 411.333C575.303 410.305 575.3 409.287 575.376 408.277C575.45 407.237 575.477 406.2 575.457 405.167C575.601 404.999 575.662 404.79 575.642 404.541C575.623 404.292 575.684 404.083 575.828 403.915L575.802 403.588C575.757 403.027 575.774 402.462 575.854 401.891C575.934 401.32 576.031 400.764 576.144 400.222C576.258 399.68 576.355 399.124 576.434 398.553C576.514 397.982 576.532 397.417 576.487 396.856L576.427 396.108C576.41 395.89 576.496 395.789 576.685 395.806C576.903 395.788 577.018 395.654 577.029 395.402C577.057 394.961 577.055 394.538 577.022 394.133C577.019 393.694 577.031 393.254 577.058 392.813C577.147 391.96 577.251 391.105 577.371 390.249C577.488 389.362 577.512 388.482 577.442 387.61L577.431 387.47C577.424 387.376 577.487 387.183 577.62 386.891C577.751 386.567 577.805 386.264 577.783 385.984C577.765 385.766 577.703 385.567 577.594 385.388C577.628 385.417 577.691 385.427 577.785 385.42C577.909 385.41 577.985 385.372 578.011 385.308C578.066 385.209 578.137 385.125 578.226 385.055C578.123 384.938 578.066 384.817 578.056 384.693C578.044 384.537 578.048 384.396 578.069 384.268C578.119 384.108 578.138 383.949 578.125 383.794C578.108 383.576 577.986 383.429 577.761 383.353C578.08 382.637 578.286 381.884 578.38 381.093C578.505 380.299 578.566 379.495 578.564 378.68C578.593 377.863 578.606 377.047 578.604 376.232C578.599 375.386 578.676 374.58 578.834 373.815C578.757 373.633 578.694 373.434 578.645 373.219C578.628 373.001 578.612 372.798 578.597 372.611C578.587 372.487 578.561 372.363 578.52 372.241C578.477 372.088 578.481 371.947 578.533 371.817C578.528 371.755 578.538 371.676 578.562 371.58L578.633 371.292C578.678 371.069 578.691 370.848 578.674 370.63C578.685 370.379 578.696 370.127 578.708 369.875C578.713 369.154 578.67 368.42 578.579 367.675C578.52 366.928 578.491 366.178 578.494 365.425C578.39 365.308 578.289 365.222 578.191 365.167C578.09 365.081 578.018 364.961 577.974 364.808C578.189 364.352 578.421 363.926 578.672 363.53C578.951 363.1 579.331 362.756 579.812 362.498C579.933 362.834 580.196 362.985 580.601 362.953C580.788 362.938 581.017 362.872 581.29 362.757C581.563 362.641 581.74 362.501 581.821 362.338C582.366 362.483 582.903 362.534 583.432 362.492C583.991 362.416 584.515 362.499 585.004 362.742C585.135 363.202 585.298 363.675 585.494 364.161C585.689 364.647 585.943 365.081 586.256 365.464C586.35 365.864 586.452 366.357 586.562 366.944C586.669 367.5 586.779 368.087 586.891 368.705C587 369.292 587.14 369.861 587.309 370.412C587.476 370.931 587.681 371.338 587.924 371.632C587.999 372.19 588.138 372.744 588.338 373.292C588.539 373.84 588.753 374.372 588.983 374.886C589.209 375.37 589.402 375.825 589.562 376.251C589.752 376.675 589.859 377.027 589.881 377.307C589.901 377.556 589.868 377.731 589.782 377.832C589.725 377.899 589.672 378.029 589.625 378.221C589.777 378.554 589.972 378.836 590.21 379.068C590.445 379.268 590.7 379.514 590.974 379.806C591.583 381.544 592.328 383.225 593.21 384.847C594.092 386.47 595.124 388.018 596.308 389.491C596.591 389.499 596.815 389.56 596.981 389.672C597.178 389.782 597.46 389.791 597.829 389.698L597.855 390.026C597.88 390.337 597.96 390.55 598.094 390.665C598.39 390.829 598.724 390.897 599.098 390.867C599.503 390.835 599.806 390.701 600.006 390.465C600.236 390.196 600.447 389.897 600.64 389.568C600.833 389.239 601.028 388.926 601.224 388.628C601.419 388.33 601.7 388.12 602.067 387.997L602.059 387.903C602.039 387.654 602.07 387.448 602.151 387.285C602.261 387.088 602.307 386.88 602.289 386.662C602.612 386.386 602.852 386.053 603.009 385.664C603.166 385.276 603.308 384.888 603.434 384.502C603.557 384.085 603.699 383.697 603.858 383.339C604.049 382.979 604.307 382.677 604.632 382.431C604.961 381.057 605.392 379.769 605.923 378.566C606.454 377.364 607.015 376.144 607.606 374.905C607.598 374.812 607.575 374.72 607.536 374.629C607.495 374.507 607.471 374.399 607.464 374.305C607.461 374.274 607.481 374.132 607.524 373.877C607.654 373.553 607.771 373.246 607.873 372.956C607.975 372.666 608.06 372.346 608.126 371.995C608.36 371.005 608.565 370.032 608.739 369.078C608.945 368.121 609.279 367.201 609.742 366.318L609.649 365.149C610.12 363.983 610.415 362.768 610.533 361.505C610.683 360.239 610.882 359.001 611.13 357.79C611.165 357.442 611.247 357.091 611.376 356.735C611.533 356.347 611.73 356.065 611.966 355.889C611.858 355.709 611.796 355.526 611.781 355.339C611.762 355.09 611.775 354.87 611.823 354.678C611.899 354.452 611.959 354.228 612.004 354.005C611.893 353.794 611.824 353.518 611.797 353.175C611.762 352.739 611.854 352.324 612.074 351.93C612.291 351.505 612.643 351.211 613.132 351.047C613.451 351.115 613.728 351.25 613.963 351.45C614.199 351.651 614.42 351.869 614.627 352.103C614.862 352.304 615.095 352.473 615.326 352.611C615.585 352.716 615.899 352.722 616.268 352.63C616.554 353.078 616.765 353.562 616.901 354.085C617.034 354.575 617.122 355.086 617.164 355.615C617.221 356.332 617.219 357.084 617.156 357.873C617.091 358.631 617.105 359.398 617.199 360.174C616.989 360.692 616.846 361.252 616.768 361.854C616.72 362.422 616.672 363.006 616.626 363.605C616.58 364.205 616.517 364.79 616.437 365.36C616.357 365.931 616.181 366.478 615.909 367.001C615.928 368.41 615.928 369.79 615.91 371.139C615.924 372.486 615.875 373.838 615.764 375.195L615.556 377.892C615.511 378.115 615.468 378.369 615.428 378.654C615.386 378.909 615.372 379.129 615.387 379.316C615.402 379.503 615.434 379.704 615.482 379.92C615.528 380.104 615.633 380.237 615.796 380.318C615.603 380.647 615.477 381.033 615.419 381.477C615.36 381.92 615.304 382.395 615.25 382.901L615.132 384.368C615.107 384.84 615.016 385.271 614.859 385.659L614.9 386.173C614.999 387.419 614.883 388.714 614.551 390.057L614.57 390.291C614.582 390.447 614.578 390.588 614.557 390.715C614.564 390.809 614.574 390.933 614.587 391.089C614.604 391.307 614.68 391.473 614.815 391.588C614.63 392.418 614.463 393.278 614.315 394.167C614.164 395.026 614.078 395.91 614.056 396.821C614.06 398.043 614.144 399.291 614.308 400.563C614.47 401.804 614.411 403.031 614.131 404.245C614.363 404.791 614.536 405.388 614.651 406.037L614.994 407.985C615.109 408.634 615.252 409.25 615.424 409.832C615.629 410.442 615.95 410.934 616.388 411.307C616.424 411.366 616.447 411.459 616.457 411.583C616.477 411.832 616.429 412.024 616.315 412.159C616.402 412.465 616.532 412.721 616.705 412.927C616.878 413.133 617.05 413.323 617.221 413.497C617.394 413.703 617.537 413.927 617.651 414.168C617.795 414.408 617.882 414.714 617.912 415.088C618.189 415.411 618.599 415.644 619.144 415.789C619.688 415.934 620.233 416.078 620.777 416.223C621.353 416.365 621.854 416.56 622.281 416.808C622.711 417.088 622.949 417.508 622.993 418.068ZM595.521 525.798C595.561 526.296 595.425 526.761 595.115 527.194C594.805 527.626 594.54 528.039 594.32 528.433C593.902 528.685 593.491 528.844 593.089 528.907C592.72 528.999 592.323 529.141 591.9 529.331C591.747 529.375 591.584 529.497 591.412 529.699C591.16 529.688 590.902 529.599 590.638 529.432C590.377 529.296 590.119 529.207 589.864 529.164C589.512 529.067 589.054 529.025 588.491 529.039C587.959 529.05 587.557 528.925 587.285 528.665C586.814 528.263 586.395 527.717 586.026 527.025C585.688 526.331 585.394 525.587 585.142 524.792C584.922 523.994 584.734 523.21 584.578 522.438C584.451 521.633 584.364 520.935 584.317 520.343C584.238 519.346 584.22 518.345 584.266 517.338C584.311 516.331 584.42 515.35 584.595 514.396L584.576 514.162C584.564 514.007 584.554 513.882 584.547 513.789C584.568 513.661 584.572 513.52 584.56 513.364C584.552 513.271 584.529 513.179 584.491 513.088C584.483 512.994 584.43 512.92 584.332 512.865C584.655 511.805 584.866 510.722 584.966 509.617C585.066 508.512 585.119 507.41 585.126 506.313C585.161 505.181 585.197 504.065 585.235 502.965C585.301 501.831 585.432 500.724 585.628 499.642C585.582 499.458 585.535 499.258 585.486 499.042C585.469 498.824 585.453 498.622 585.438 498.435C585.393 497.874 585.412 497.324 585.494 496.784C585.574 496.214 585.606 495.631 585.59 495.037C585.606 494.847 585.591 494.66 585.545 494.476C585.497 494.26 585.464 494.044 585.446 493.826C585.337 492.455 585.292 491.111 585.313 489.792C585.364 488.471 585.336 487.141 585.229 485.802C585.172 485.085 585.055 484.405 584.878 483.761C584.73 483.083 584.629 482.401 584.574 481.716C584.549 481.404 584.541 481.107 584.55 480.824C584.556 480.51 584.627 480.223 584.763 479.961C585.411 479.439 586.203 479.141 587.137 479.066C587.822 479.012 588.429 479.151 588.957 479.485C588.931 479.55 588.923 479.645 588.933 479.769C588.946 479.925 588.972 480.064 589.013 480.186C589.054 480.308 589.081 480.447 589.094 480.603L589.109 480.79C589.114 480.852 589.103 480.916 589.077 480.981C589.325 481.337 589.497 481.731 589.594 482.162C589.72 482.559 589.8 482.976 589.835 483.412C589.867 483.817 589.884 484.224 589.885 484.631C589.884 485.007 589.899 485.398 589.932 485.803C589.976 486.364 590.021 486.924 590.066 487.485C590.142 488.043 590.202 488.603 590.247 489.163C590.366 490.659 590.406 492.145 590.367 493.621C590.357 495.064 590.38 496.536 590.437 498.036C590.477 499.318 590.405 500.578 590.222 501.815C590.069 503.05 589.996 504.294 590.002 505.547C589.991 505.799 589.995 506.049 590.015 506.299C590.064 506.514 590.099 506.762 590.122 507.043C590.179 507.759 590.096 508.487 589.872 509.225C589.647 509.933 589.565 510.676 589.627 511.455C589.657 511.829 589.745 512.151 589.892 512.422C589.745 512.935 589.621 513.54 589.52 514.238C589.45 514.933 589.383 515.66 589.318 516.417C589.281 517.141 589.261 517.864 589.256 518.585C589.248 519.276 589.265 519.886 589.307 520.415C589.367 521.163 589.521 521.919 589.771 522.682C590.017 523.415 590.383 524.076 590.869 524.664C591.188 524.732 591.566 524.749 592.002 524.715C592.438 524.68 592.875 524.661 593.314 524.657C593.752 524.653 594.164 524.699 594.547 524.794C594.931 524.888 595.231 525.115 595.448 525.474C595.484 525.534 595.505 525.595 595.51 525.657L595.521 525.798Z" fill="white"/>
</g>
<circle cx="611.588" cy="402.429" r="92.7384" transform="rotate(142.049 611.588 402.429)" stroke="white" stroke-width="3.16481" stroke-linecap="square" stroke-linejoin="round" stroke-dasharray="63.3 63.3"/>
<circle cx="611.588" cy="402.429" r="92.7384" transform="rotate(155.935 611.588 402.429)" stroke="white" stroke-width="3.16481" stroke-linecap="square" stroke-linejoin="round" stroke-dasharray="31.65 31.65"/>
<circle cx="611.587" cy="402.429" r="92.7383" transform="rotate(146.732 611.587 402.429)" stroke="white" stroke-width="3.16481" stroke-linecap="square" stroke-linejoin="round" stroke-dasharray="6.33 6.33"/>
<circle cx="611.589" cy="402.429" r="127.948" transform="rotate(142.049 611.589 402.429)" stroke="white" stroke-width="6.32963"/>
<ellipse cx="722.045" cy="316.223" rx="4.31713" ry="4.31713" transform="rotate(142.049 722.045 316.223)" fill="white"/>
<ellipse cx="501.149" cy="488.501" rx="4.31713" ry="4.31713" transform="rotate(142.049 501.149 488.501)" fill="white"/>
<ellipse cx="525.457" cy="291.914" rx="4.31713" ry="4.31713" transform="rotate(52.0491 525.457 291.914)" fill="white"/>
<ellipse cx="697.736" cy="512.81" rx="4.31713" ry="4.31713" transform="rotate(52.0491 697.736 512.81)" fill="white"/>
<ellipse cx="630.924" cy="261.685" rx="2.39841" ry="2.39841" transform="rotate(97.0491 630.924 261.685)" fill="white" fill-opacity="0.5"/>
<ellipse cx="596.547" cy="539.702" rx="2.39841" ry="2.39841" transform="rotate(97.0491 596.547 539.702)" fill="white" fill-opacity="0.5"/>
<ellipse cx="470.918" cy="383.034" rx="2.39841" ry="2.39841" transform="rotate(7.04907 470.918 383.034)" fill="white" fill-opacity="0.5"/>
<ellipse cx="748.935" cy="417.411" rx="2.39841" ry="2.39841" transform="rotate(7.04907 748.935 417.411)" fill="white" fill-opacity="0.5"/>
<path d="M469.49 526.551C499.715 561.153 541.527 583.538 587.082 589.505C632.637 595.473 678.804 584.613 716.921 558.964L695.686 527.407C665.253 547.885 628.393 556.556 592.022 551.791C555.651 547.027 522.268 529.155 498.137 501.528L469.49 526.551Z" fill="#7E29CC"/>
<path d="M486.805 260.91C452.344 291.296 430.154 333.212 424.4 378.794C418.645 424.377 429.72 470.493 455.547 508.49L487.005 487.108C466.384 456.771 457.542 419.952 462.136 383.559C466.731 347.166 484.447 313.7 511.961 289.44L486.805 260.91Z" fill="#09AEE0"/>
<path d="M752.409 276.864C721.836 242.569 679.8 220.608 634.187 215.102C588.574 209.595 542.519 220.922 504.662 246.955L526.215 278.296C556.44 257.51 593.21 248.468 629.628 252.864C666.045 257.26 699.607 274.794 724.017 302.175L752.409 276.864Z" fill="#FBB911"/>
<path d="M737.247 543.126C771.515 512.522 793.438 470.466 798.904 424.848C804.37 379.23 793.003 333.185 766.935 295.352L735.614 316.933C756.426 347.139 765.502 383.902 761.138 420.323C756.774 456.744 739.27 490.322 711.911 514.756L737.247 543.126Z" fill="#72CC04"/>
<circle cx="611.588" cy="402.429" r="74.0409" transform="rotate(142.049 611.588 402.429)" stroke="white" stroke-width="3.30737"/>
<path d="M522.348 463.716C522.368 463.231 522.611 462.66 522.997 462.228C523.386 461.792 523.82 461.603 524.188 461.648L528.124 462.135C531.056 462.497 533.139 465.168 532.777 468.101L532.315 471.831C532.274 472.164 532.007 472.523 531.51 472.803C531.022 473.078 530.433 473.201 529.975 473.145C529.508 473.087 529.268 472.86 529.137 472.537C528.987 472.171 528.968 471.636 529.111 471.025C529.309 470.184 529.488 469.243 529.542 468.407C529.569 467.989 529.566 467.577 529.512 467.207C529.458 466.846 529.347 466.465 529.111 466.162C528.869 465.852 528.517 465.649 528.17 465.509C527.813 465.364 527.402 465.262 526.978 465.187C526.128 465.037 525.144 464.985 524.267 464.976C523.625 464.969 523.113 464.847 522.787 464.636C522.505 464.454 522.329 464.189 522.348 463.716Z" stroke="white" stroke-width="1.26593"/>
<path d="M700.129 340.6C700.109 341.085 699.866 341.656 699.48 342.088C699.091 342.524 698.657 342.713 698.289 342.668L694.353 342.181C691.421 341.819 689.338 339.148 689.7 336.215L690.162 332.485C690.203 332.152 690.47 331.793 690.967 331.513C691.455 331.238 692.044 331.115 692.502 331.171C692.969 331.229 693.209 331.456 693.34 331.779C693.49 332.145 693.509 332.68 693.366 333.291C693.168 334.132 692.99 335.073 692.935 335.909C692.908 336.327 692.911 336.739 692.965 337.109C693.019 337.47 693.13 337.851 693.366 338.154C693.608 338.464 693.96 338.667 694.308 338.807C694.664 338.952 695.075 339.054 695.5 339.129C696.349 339.279 697.333 339.331 698.21 339.34C698.852 339.347 699.364 339.469 699.69 339.68C699.972 339.862 700.148 340.127 700.129 340.6Z" stroke="white" stroke-width="1.26593"/>
<path d="M549.68 313.268C550.165 313.287 550.737 313.53 551.169 313.916C551.604 314.306 551.794 314.74 551.748 315.107L551.262 319.043C550.899 321.976 548.228 324.059 545.296 323.696L541.566 323.235C541.233 323.194 540.873 322.926 540.593 322.43C540.318 321.941 540.195 321.352 540.252 320.895C540.309 320.428 540.536 320.188 540.859 320.056C541.225 319.907 541.761 319.887 542.372 320.031C543.213 320.228 544.154 320.407 544.99 320.461C545.408 320.488 545.82 320.486 546.19 320.431C546.551 320.378 546.931 320.267 547.234 320.031C547.544 319.789 547.747 319.436 547.888 319.089C548.032 318.733 548.135 318.322 548.21 317.897C548.36 317.047 548.411 316.063 548.42 315.186C548.427 314.545 548.55 314.032 548.76 313.706C548.943 313.425 549.207 313.248 549.68 313.268Z" stroke="white" stroke-width="1.26593"/>
<path d="M672.797 491.048C672.312 491.028 671.74 490.785 671.308 490.4C670.873 490.01 670.683 489.576 670.729 489.209L671.215 485.273C671.578 482.34 674.249 480.257 677.181 480.62L680.911 481.081C681.245 481.122 681.604 481.39 681.884 481.886C682.159 482.375 682.282 482.964 682.225 483.421C682.168 483.888 681.941 484.128 681.618 484.26C681.252 484.409 680.716 484.429 680.105 484.285C679.264 484.088 678.323 483.909 677.487 483.855C677.069 483.828 676.657 483.83 676.287 483.885C675.926 483.938 675.546 484.049 675.243 484.285C674.933 484.527 674.73 484.88 674.589 485.227C674.445 485.583 674.342 485.994 674.267 486.419C674.118 487.269 674.066 488.252 674.057 489.13C674.05 489.771 673.928 490.284 673.717 490.609C673.534 490.891 673.27 491.067 672.797 491.048Z" stroke="white" stroke-width="1.26593"/>
<path d="M504.855 382.832C505.212 382.503 505.788 382.27 506.366 382.238C506.949 382.205 507.39 382.378 507.618 382.67L510.057 385.798C511.874 388.127 511.458 391.489 509.128 393.306L506.165 395.618C505.9 395.824 505.457 395.889 504.908 395.736C504.368 395.585 503.864 395.255 503.581 394.892C503.291 394.521 503.282 394.191 503.417 393.869C503.571 393.505 503.935 393.112 504.469 392.782C505.203 392.327 505.995 391.788 506.625 391.235C506.939 390.958 507.229 390.666 507.452 390.365C507.67 390.072 507.86 389.725 507.907 389.343C507.955 388.953 507.85 388.56 507.704 388.215C507.554 387.862 507.336 387.498 507.088 387.145C506.593 386.438 505.934 385.706 505.321 385.079C504.872 384.621 504.596 384.172 504.515 383.792C504.444 383.464 504.507 383.152 504.855 382.832Z" stroke="white" stroke-width="1.26593"/>
<path d="M717.621 421.485C717.264 421.814 716.688 422.046 716.11 422.079C715.526 422.112 715.085 421.939 714.858 421.647L712.419 418.519C710.602 416.189 711.017 412.828 713.347 411.011L716.311 408.699C716.576 408.493 717.019 408.428 717.568 408.581C718.108 408.732 718.611 409.061 718.895 409.425C719.184 409.796 719.193 410.126 719.058 410.447C718.905 410.812 718.54 411.204 718.007 411.535C717.272 411.99 716.481 412.529 715.851 413.082C715.536 413.358 715.247 413.651 715.024 413.951C714.806 414.245 714.615 414.592 714.568 414.973C714.52 415.363 714.626 415.757 714.772 416.101C714.922 416.455 715.14 416.819 715.387 417.172C715.882 417.879 716.541 418.611 717.155 419.238C717.604 419.696 717.88 420.145 717.961 420.524C718.031 420.852 717.969 421.164 717.621 421.485Z" stroke="white" stroke-width="1.26593"/>
<path d="M630.565 295.775C630.894 296.132 631.126 296.708 631.159 297.286C631.191 297.869 631.018 298.31 630.727 298.538L627.599 300.977C625.269 302.794 621.908 302.379 620.091 300.049L617.779 297.085C617.573 296.82 617.508 296.377 617.661 295.828C617.812 295.288 618.141 294.785 618.505 294.501C618.876 294.212 619.206 294.202 619.527 294.338C619.892 294.491 620.284 294.856 620.615 295.389C621.07 296.124 621.609 296.915 622.162 297.545C622.438 297.86 622.731 298.149 623.031 298.372C623.324 298.59 623.672 298.78 624.053 298.828C624.443 298.876 624.836 298.77 625.181 298.624C625.535 298.474 625.898 298.256 626.252 298.009C626.959 297.514 627.691 296.855 628.317 296.241C628.776 295.792 629.225 295.516 629.604 295.435C629.932 295.365 630.244 295.427 630.565 295.775Z" stroke="white" stroke-width="1.26593"/>
<path d="M591.912 508.541C591.583 508.185 591.35 507.608 591.318 507.03C591.285 506.447 591.458 506.006 591.75 505.778L594.877 503.339C597.207 501.522 600.569 501.938 602.386 504.268L604.697 507.232C604.904 507.496 604.969 507.939 604.816 508.488C604.665 509.029 604.335 509.532 603.972 509.815C603.601 510.105 603.271 510.114 602.949 509.979C602.585 509.825 602.192 509.461 601.862 508.927C601.407 508.193 600.868 507.401 600.315 506.771C600.038 506.457 599.745 506.167 599.445 505.944C599.152 505.727 598.805 505.536 598.423 505.489C598.033 505.441 597.64 505.547 597.295 505.693C596.942 505.842 596.578 506.061 596.225 506.308C595.518 506.803 594.786 507.462 594.159 508.076C593.701 508.524 593.252 508.8 592.872 508.882C592.544 508.952 592.232 508.889 591.912 508.541Z" stroke="white" stroke-width="1.26593"/>
<path d="M503.478 411.023C503.738 410.613 504.234 410.239 504.784 410.058C505.339 409.875 505.81 409.928 506.105 410.151L509.271 412.541C511.629 414.321 512.097 417.676 510.317 420.034L508.053 423.034C507.85 423.302 507.439 423.479 506.87 423.473C506.308 423.467 505.737 423.279 505.369 423.002C504.994 422.718 504.899 422.402 504.947 422.056C505 421.664 505.251 421.191 505.681 420.734C506.272 420.104 506.898 419.378 507.363 418.681C507.595 418.333 507.799 417.975 507.937 417.627C508.071 417.288 508.165 416.903 508.112 416.522C508.058 416.133 507.854 415.781 507.623 415.486C507.387 415.183 507.082 414.888 506.752 414.611C506.091 414.056 505.265 413.52 504.51 413.073C503.958 412.746 503.575 412.384 503.398 412.039C503.245 411.74 503.225 411.423 503.478 411.023Z" stroke="white" stroke-width="1.26593"/>
<path d="M718.999 393.291C718.739 393.701 718.243 394.075 717.693 394.256C717.138 394.438 716.667 394.385 716.372 394.162L713.206 391.773C710.848 389.992 710.38 386.638 712.16 384.28L714.424 381.28C714.627 381.012 715.038 380.834 715.608 380.84C716.169 380.846 716.74 381.034 717.108 381.312C717.483 381.595 717.578 381.912 717.53 382.257C717.477 382.649 717.226 383.123 716.796 383.58C716.205 384.209 715.579 384.935 715.114 385.632C714.882 385.981 714.678 386.339 714.54 386.686C714.406 387.026 714.312 387.411 714.365 387.791C714.419 388.181 714.623 388.533 714.854 388.828C715.09 389.131 715.395 389.426 715.725 389.703C716.386 390.257 717.212 390.794 717.967 391.241C718.519 391.567 718.902 391.929 719.079 392.275C719.232 392.574 719.252 392.891 718.999 393.291Z" stroke="white" stroke-width="1.26593"/>
<path d="M602.373 294.396C602.783 294.656 603.157 295.152 603.338 295.702C603.521 296.257 603.467 296.728 603.245 297.023L600.855 300.189C599.075 302.547 595.72 303.016 593.362 301.235L590.362 298.971C590.094 298.769 589.917 298.357 589.923 297.788C589.929 297.227 590.117 296.655 590.394 296.287C590.678 295.912 590.994 295.817 591.34 295.865C591.732 295.919 592.205 296.169 592.662 296.599C593.292 297.191 594.017 297.816 594.715 298.281C595.063 298.513 595.421 298.717 595.769 298.855C596.108 298.989 596.493 299.083 596.873 299.03C597.263 298.976 597.615 298.772 597.91 298.542C598.213 298.305 598.508 298 598.785 297.67C599.34 297.009 599.876 296.183 600.323 295.428C600.65 294.876 601.012 294.493 601.357 294.316C601.656 294.164 601.973 294.143 602.373 294.396Z" stroke="white" stroke-width="1.26593"/>
<path d="M620.105 509.917C619.695 509.658 619.321 509.161 619.14 508.611C618.958 508.056 619.011 507.585 619.234 507.29L621.623 504.125C623.404 501.766 626.758 501.298 629.116 503.078L632.116 505.343C632.384 505.545 632.562 505.956 632.556 506.526C632.55 507.087 632.362 507.658 632.084 508.026C631.801 508.402 631.484 508.496 631.139 508.449C630.747 508.395 630.273 508.144 629.816 507.714C629.187 507.123 628.461 506.498 627.764 506.033C627.415 505.8 627.057 505.596 626.71 505.459C626.37 505.324 625.985 505.23 625.605 505.283C625.215 505.338 624.863 505.542 624.568 505.772C624.265 506.008 623.97 506.313 623.693 506.643C623.139 507.304 622.602 508.13 622.155 508.885C621.829 509.438 621.467 509.82 621.121 509.997C620.822 510.15 620.505 510.17 620.105 509.917Z" stroke="white" stroke-width="1.26593"/>
<path d="M528.772 332.228C529.246 332.121 529.861 332.208 530.378 332.469C530.899 332.732 531.195 333.103 531.246 333.469L531.794 337.397C532.203 340.323 530.162 343.027 527.236 343.436L523.514 343.955C523.181 344.002 522.765 343.837 522.366 343.429C521.974 343.029 521.703 342.492 521.639 342.035C521.574 341.569 521.731 341.279 522.009 341.068C522.324 340.829 522.836 340.671 523.463 340.652C524.326 340.625 525.282 340.554 526.104 340.39C526.514 340.308 526.911 340.199 527.255 340.05C527.59 339.905 527.928 339.7 528.16 339.393C528.397 339.079 528.502 338.686 528.547 338.314C528.595 337.933 528.587 337.509 528.55 337.08C528.475 336.22 528.27 335.257 528.052 334.407C527.892 333.785 527.878 333.259 527.997 332.89C528.1 332.57 528.311 332.331 528.772 332.228Z" stroke="white" stroke-width="1.26593"/>
<path d="M693.707 472.085C693.233 472.192 692.618 472.105 692.101 471.844C691.58 471.581 691.284 471.21 691.233 470.844L690.685 466.916C690.276 463.99 692.317 461.286 695.243 460.878L698.965 460.358C699.298 460.311 699.714 460.477 700.113 460.884C700.505 461.284 700.776 461.821 700.84 462.278C700.905 462.744 700.748 463.035 700.47 463.245C700.155 463.484 699.643 463.642 699.016 463.661C698.153 463.688 697.197 463.759 696.376 463.923C695.965 464.005 695.568 464.114 695.224 464.263C694.889 464.408 694.551 464.613 694.319 464.92C694.082 465.234 693.977 465.627 693.932 465.999C693.884 466.38 693.892 466.804 693.929 467.233C694.004 468.093 694.209 469.057 694.427 469.906C694.587 470.528 694.601 471.054 694.482 471.424C694.379 471.743 694.168 471.982 693.707 472.085Z" stroke="white" stroke-width="1.26593"/>
<path d="M681.168 319.689C681.275 320.163 681.188 320.778 680.927 321.295C680.664 321.816 680.293 322.112 679.927 322.163L675.999 322.712C673.072 323.12 670.369 321.079 669.96 318.153L669.44 314.431C669.394 314.098 669.559 313.682 669.966 313.283C670.367 312.891 670.904 312.62 671.361 312.556C671.827 312.491 672.117 312.648 672.328 312.926C672.567 313.241 672.725 313.753 672.744 314.38C672.771 315.244 672.842 316.199 673.006 317.021C673.088 317.431 673.197 317.828 673.345 318.172C673.49 318.507 673.696 318.846 674.003 319.077C674.316 319.314 674.71 319.419 675.081 319.465C675.463 319.512 675.886 319.504 676.316 319.467C677.176 319.392 678.139 319.187 678.989 318.969C679.61 318.809 680.137 318.795 680.506 318.914C680.826 319.018 681.064 319.228 681.168 319.689Z" stroke="white" stroke-width="1.26593"/>
<path d="M541.31 484.623C541.204 484.15 541.291 483.535 541.552 483.018C541.815 482.496 542.185 482.201 542.552 482.15L546.48 481.601C549.406 481.193 552.11 483.233 552.518 486.16L553.038 489.882C553.085 490.214 552.919 490.631 552.512 491.029C552.111 491.422 551.574 491.693 551.118 491.757C550.652 491.822 550.361 491.665 550.151 491.387C549.912 491.072 549.754 490.56 549.734 489.933C549.708 489.069 549.637 488.114 549.473 487.292C549.391 486.882 549.282 486.485 549.133 486.141C548.988 485.806 548.782 485.467 548.476 485.236C548.162 484.999 547.769 484.894 547.397 484.848C547.016 484.801 546.592 484.808 546.162 484.846C545.303 484.921 544.339 485.126 543.49 485.344C542.868 485.503 542.341 485.518 541.972 485.399C541.653 485.295 541.414 485.085 541.31 484.623Z" stroke="white" stroke-width="1.26593"/>
<path d="M509.445 438.611C509.59 438.147 509.972 437.658 510.457 437.341C510.946 437.021 511.414 436.95 511.757 437.089L515.433 438.578C518.172 439.687 519.493 442.806 518.383 445.545L516.972 449.029C516.846 449.34 516.495 449.618 515.943 449.759C515.4 449.899 514.799 449.865 514.372 449.692C513.936 449.516 513.763 449.234 513.719 448.888C513.67 448.496 513.789 447.974 514.086 447.421C514.495 446.66 514.911 445.797 515.179 445.003C515.314 444.606 515.418 444.208 515.461 443.836C515.503 443.474 515.494 443.077 515.344 442.724C515.191 442.362 514.903 442.074 514.604 441.849C514.298 441.617 513.927 441.412 513.536 441.229C512.754 440.865 511.817 440.56 510.972 440.324C510.354 440.152 509.891 439.901 509.631 439.613C509.406 439.364 509.304 439.062 509.445 438.611Z" stroke="white" stroke-width="1.26593"/>
<path d="M713.033 365.702C712.888 366.166 712.505 366.655 712.021 366.972C711.532 367.292 711.064 367.363 710.721 367.224L707.045 365.735C704.306 364.626 702.985 361.507 704.094 358.768L705.505 355.284C705.631 354.973 705.983 354.695 706.534 354.554C707.078 354.414 707.679 354.448 708.106 354.621C708.542 354.797 708.715 355.079 708.759 355.425C708.808 355.817 708.689 356.339 708.392 356.892C707.983 357.653 707.567 358.516 707.298 359.31C707.164 359.707 707.06 360.105 707.017 360.477C706.975 360.839 706.984 361.236 707.133 361.589C707.287 361.951 707.575 362.239 707.874 362.464C708.18 362.696 708.551 362.901 708.942 363.084C709.724 363.448 710.661 363.753 711.506 363.989C712.123 364.161 712.587 364.412 712.847 364.7C713.072 364.949 713.174 365.251 713.033 365.702Z" stroke="white" stroke-width="1.26593"/>
<path d="M574.785 300.363C575.248 300.507 575.737 300.89 576.054 301.374C576.374 301.863 576.445 302.332 576.306 302.675L574.817 306.351C573.708 309.089 570.589 310.41 567.85 309.301L564.367 307.89C564.055 307.764 563.778 307.413 563.636 306.861C563.496 306.317 563.53 305.717 563.703 305.289C563.88 304.853 564.161 304.68 564.507 304.637C564.899 304.587 565.421 304.707 565.974 305.003C566.736 305.412 567.598 305.828 568.392 306.097C568.789 306.231 569.187 306.335 569.559 306.378C569.921 306.421 570.318 306.412 570.671 306.262C571.033 306.109 571.321 305.82 571.546 305.522C571.778 305.215 571.984 304.844 572.166 304.453C572.53 303.671 572.835 302.735 573.071 301.89C573.244 301.272 573.494 300.808 573.782 300.548C574.031 300.323 574.333 300.222 574.785 300.363Z" stroke="white" stroke-width="1.26593"/>
<path d="M647.693 503.95C647.23 503.806 646.74 503.423 646.423 502.939C646.103 502.45 646.033 501.981 646.172 501.638L647.66 497.962C648.77 495.224 651.889 493.903 654.627 495.012L658.111 496.423C658.422 496.549 658.7 496.9 658.842 497.452C658.981 497.996 658.948 498.596 658.774 499.024C658.598 499.46 658.317 499.633 657.971 499.676C657.578 499.726 657.056 499.606 656.503 499.309C655.742 498.901 654.879 498.485 654.085 498.216C653.689 498.082 653.29 497.977 652.919 497.934C652.556 497.892 652.16 497.901 651.806 498.051C651.444 498.204 651.157 498.492 650.931 498.791C650.7 499.098 650.494 499.469 650.312 499.859C649.947 500.642 649.643 501.578 649.407 502.423C649.234 503.041 648.983 503.504 648.695 503.765C648.446 503.989 648.145 504.091 647.693 503.95Z" stroke="white" stroke-width="1.26593"/>
<path d="M513.483 355.954C513.912 355.729 514.529 355.654 515.096 355.772C515.668 355.891 516.049 356.173 516.193 356.513L517.74 360.166C518.892 362.886 517.62 366.026 514.9 367.178L511.439 368.644C511.129 368.774 510.684 368.723 510.194 368.433C509.711 368.147 509.31 367.698 509.13 367.274C508.947 366.841 509.024 366.519 509.237 366.244C509.48 365.932 509.934 365.647 510.534 365.466C511.362 365.216 512.266 364.9 513.017 364.529C513.393 364.344 513.748 364.136 514.041 363.903C514.327 363.677 514.601 363.39 514.746 363.034C514.893 362.67 514.893 362.263 514.841 361.892C514.788 361.512 514.671 361.104 514.523 360.699C514.228 359.888 513.781 359.01 513.351 358.246C513.036 357.687 512.885 357.182 512.905 356.794C512.922 356.459 513.063 356.174 513.483 355.954Z" stroke="white" stroke-width="1.26593"/>
<path d="M708.994 448.359C708.565 448.584 707.948 448.659 707.381 448.541C706.809 448.422 706.428 448.14 706.284 447.8L704.737 444.147C703.585 441.427 704.857 438.287 707.577 437.135L711.039 435.669C711.348 435.539 711.793 435.59 712.283 435.88C712.766 436.166 713.167 436.615 713.347 437.039C713.53 437.472 713.454 437.794 713.24 438.069C712.997 438.381 712.543 438.666 711.943 438.847C711.115 439.097 710.211 439.413 709.46 439.784C709.084 439.969 708.729 440.177 708.436 440.41C708.15 440.636 707.876 440.923 707.731 441.279C707.584 441.643 707.584 442.05 707.636 442.421C707.689 442.801 707.806 443.209 707.954 443.614C708.249 444.425 708.696 445.303 709.126 446.067C709.441 446.626 709.592 447.131 709.572 447.519C709.555 447.854 709.414 448.139 708.994 448.359Z" stroke="white" stroke-width="1.26593"/>
<path d="M657.44 304.401C657.665 304.83 657.741 305.447 657.623 306.014C657.503 306.586 657.222 306.967 656.881 307.111L653.229 308.658C650.508 309.81 647.369 308.538 646.217 305.818L644.751 302.357C644.62 302.047 644.672 301.602 644.962 301.112C645.248 300.629 645.696 300.228 646.121 300.048C646.554 299.865 646.875 299.942 647.15 300.155C647.463 300.398 647.748 300.852 647.929 301.452C648.178 302.28 648.494 303.184 648.865 303.935C649.051 304.311 649.259 304.666 649.491 304.959C649.718 305.245 650.004 305.519 650.36 305.664C650.725 305.811 651.132 305.811 651.503 305.759C651.883 305.706 652.291 305.589 652.696 305.441C653.507 305.146 654.384 304.699 655.149 304.269C655.708 303.954 656.213 303.803 656.6 303.823C656.935 303.84 657.22 303.981 657.44 304.401Z" stroke="white" stroke-width="1.26593"/>
<path d="M565.036 499.912C564.81 499.483 564.735 498.866 564.853 498.299C564.973 497.727 565.254 497.346 565.595 497.202L569.247 495.655C571.968 494.503 575.107 495.775 576.259 498.496L577.725 501.957C577.856 502.266 577.804 502.711 577.514 503.201C577.228 503.684 576.78 504.085 576.355 504.265C575.922 504.448 575.601 504.372 575.325 504.158C575.013 503.915 574.728 503.462 574.547 502.861C574.298 502.033 573.982 501.129 573.611 500.378C573.425 500.002 573.217 499.647 572.985 499.354C572.758 499.068 572.472 498.794 572.116 498.65C571.751 498.502 571.344 498.503 570.973 498.554C570.593 498.607 570.185 498.724 569.78 498.872C568.969 499.167 568.091 499.614 567.327 500.044C566.768 500.359 566.263 500.51 565.876 500.49C565.541 500.473 565.255 500.332 565.036 499.912Z" stroke="white" stroke-width="1.26593"/>
<circle cx="611.588" cy="402.429" r="80.046" transform="rotate(142.049 611.588 402.429)" stroke="white" stroke-width="1.32295"/>
<circle cx="611.588" cy="402.429" r="77.7066" transform="rotate(142.049 611.588 402.429)" stroke="white" stroke-width="1.32295"/>
<path d="M619.774 419.741C619.774 419.882 619.719 420.007 619.61 420.116C619.516 420.225 619.399 420.311 619.258 420.374C619.118 420.452 618.969 420.522 618.813 420.585C618.672 420.647 618.547 420.702 618.438 420.749C618.266 420.655 618.086 420.593 617.899 420.561C617.727 420.53 617.571 420.452 617.43 420.327H617.266C617.016 420.327 616.821 420.358 616.68 420.421C616.461 420.343 616.282 420.225 616.141 420.069C616 419.928 615.868 419.772 615.743 419.6C615.618 419.444 615.493 419.288 615.368 419.132C615.243 418.975 615.086 418.843 614.899 418.733C614.618 417.952 614.368 417.163 614.149 416.366C613.93 415.569 613.766 414.757 613.657 413.928C613.688 413.85 613.711 413.764 613.727 413.671C613.743 413.577 613.75 413.491 613.75 413.413C613.75 413.35 613.735 413.288 613.704 413.225C613.688 413.147 613.641 413.1 613.563 413.085C613.641 412.96 613.688 412.819 613.704 412.663C613.735 412.491 613.75 412.335 613.75 412.194C613.75 411.882 613.719 411.624 613.657 411.421C613.75 411.343 613.79 411.218 613.774 411.046C613.758 410.858 613.797 410.725 613.891 410.647C613.813 410.382 613.774 410.124 613.774 409.874C613.774 409.53 613.813 409.194 613.891 408.866C613.985 408.538 614.032 408.202 614.032 407.858C614.032 407.78 614.024 407.702 614.008 407.624C614.008 407.546 614 407.468 613.985 407.389C614.063 407.139 614.133 406.889 614.196 406.639C614.274 406.374 614.313 406.108 614.313 405.843C614.313 405.655 614.282 405.499 614.219 405.374C614.422 404.655 614.563 403.944 614.641 403.241C614.735 402.522 614.821 401.796 614.899 401.061C614.883 401.03 614.868 401.007 614.852 400.991C614.836 400.975 614.829 400.952 614.829 400.921C614.829 400.843 614.868 400.78 614.946 400.733C615.04 400.686 615.079 400.6 615.063 400.475C614.875 400.663 614.719 400.882 614.594 401.132C614.485 401.382 614.375 401.632 614.266 401.882C614.172 402.132 614.063 402.382 613.938 402.632C613.829 402.866 613.68 403.077 613.493 403.264C613.477 403.436 613.422 403.6 613.329 403.757C613.25 403.913 613.211 404.085 613.211 404.272C613.196 404.272 613.18 404.272 613.165 404.272C613.149 404.257 613.125 404.249 613.094 404.249C613.032 404.249 612.985 404.288 612.954 404.366C612.938 404.444 612.891 404.468 612.813 404.436C612.454 405.139 612.055 405.827 611.618 406.499C611.196 407.171 610.641 407.71 609.954 408.116C609.829 408.069 609.711 408.046 609.602 408.046C609.399 408.046 609.196 408.108 608.993 408.233C608.805 408.343 608.68 408.397 608.618 408.397C608.461 408.397 608.266 408.319 608.032 408.163C607.813 407.991 607.586 407.897 607.352 407.882C607.102 407.71 606.891 407.538 606.719 407.366C606.563 407.178 606.321 407.069 605.993 407.038C605.774 406.71 605.555 406.397 605.336 406.1C605.133 405.803 604.93 405.514 604.727 405.233C604.54 404.936 604.368 404.624 604.211 404.296C604.071 403.968 603.961 403.6 603.883 403.194C603.899 403.163 603.907 403.132 603.907 403.1C603.907 403.007 603.86 402.968 603.766 402.983C603.688 402.999 603.649 402.952 603.649 402.843V402.678C603.649 402.553 603.625 402.444 603.579 402.35C603.547 402.241 603.54 402.124 603.555 401.999C603.446 401.827 603.36 401.647 603.297 401.46C603.235 401.272 603.125 401.108 602.969 400.968V400.757C602.969 400.663 602.961 400.577 602.946 400.499C602.946 400.405 602.922 400.327 602.875 400.264C602.844 400.186 602.79 400.139 602.711 400.124C602.696 399.561 602.579 398.991 602.36 398.413C602.157 397.819 601.969 397.249 601.797 396.702C601.672 397.108 601.579 397.522 601.516 397.944C601.454 398.35 601.422 398.764 601.422 399.186V399.585C601.422 399.71 601.438 399.835 601.469 399.96C601.422 400.038 601.352 400.093 601.258 400.124C601.18 400.155 601.133 400.218 601.118 400.311C601.102 400.389 601.094 400.468 601.094 400.546C601.11 400.624 601.11 400.702 601.094 400.78C601.063 401.155 601.016 401.514 600.954 401.858C600.86 402.374 600.75 402.897 600.625 403.428C600.5 403.944 600.438 404.475 600.438 405.022C600.438 405.053 600.438 405.1 600.438 405.163C600.454 405.21 600.461 405.249 600.461 405.28C600.211 405.499 600.079 405.772 600.063 406.1C600.047 406.428 600.008 406.741 599.946 407.038C599.868 407.475 599.774 407.913 599.665 408.35C599.555 408.772 599.461 409.21 599.383 409.663C599.336 409.913 599.297 410.163 599.266 410.413C599.235 410.647 599.204 410.889 599.172 411.139C599.157 411.28 599.102 411.397 599.008 411.491C598.93 411.585 598.875 411.694 598.844 411.819C598.829 411.928 598.821 412.053 598.821 412.194C598.836 412.319 598.844 412.436 598.844 412.546C598.844 412.733 598.829 412.913 598.797 413.085C598.766 413.241 598.672 413.382 598.516 413.507C598.547 413.913 598.618 414.257 598.727 414.538C598.836 414.835 598.961 415.163 599.102 415.522H599.688V415.616C599.688 415.772 599.711 415.913 599.758 416.038C599.821 416.163 599.938 416.218 600.11 416.202C600.094 416.264 600.086 416.343 600.086 416.436C600.086 416.577 600.11 416.702 600.157 416.811C600.219 416.936 600.266 417.069 600.297 417.21C599.985 417.725 599.649 418.108 599.29 418.358C598.93 418.608 598.438 418.733 597.813 418.733H597.438C597.36 418.483 597.266 418.241 597.157 418.007C597.047 417.772 596.938 417.538 596.829 417.303C596.735 417.069 596.649 416.827 596.571 416.577C596.508 416.343 596.477 416.093 596.477 415.827C596.477 415.764 596.485 415.702 596.5 415.639C596.516 415.593 596.524 415.538 596.524 415.475C596.524 415.397 596.493 415.35 596.43 415.335C596.368 415.319 596.336 415.241 596.336 415.1C596.336 414.991 596.329 414.889 596.313 414.796C596.313 414.702 596.313 414.6 596.313 414.491C596.313 413.975 596.352 413.468 596.43 412.968C596.508 412.452 596.563 411.936 596.594 411.421C596.672 411.343 596.711 411.241 596.711 411.116C596.711 410.991 596.75 410.889 596.829 410.811V410.647C596.829 410.366 596.86 410.085 596.922 409.803C596.985 409.522 597.055 409.249 597.133 408.983C597.211 408.718 597.282 408.444 597.344 408.163C597.407 407.882 597.438 407.6 597.438 407.319V406.944C597.438 406.835 597.485 406.788 597.579 406.803C597.688 406.803 597.75 406.741 597.766 406.616C597.797 406.397 597.813 406.186 597.813 405.983C597.829 405.764 597.852 405.546 597.883 405.327C597.961 404.905 598.047 404.483 598.141 404.061C598.235 403.624 598.282 403.186 598.282 402.749V402.678C598.282 402.632 598.321 402.538 598.399 402.397C598.477 402.241 598.516 402.093 598.516 401.952C598.516 401.843 598.493 401.741 598.446 401.647C598.461 401.663 598.493 401.671 598.54 401.671C598.602 401.671 598.641 401.655 598.657 401.624C598.688 401.577 598.727 401.538 598.774 401.507C598.727 401.444 598.704 401.382 598.704 401.319C598.704 401.241 598.711 401.171 598.727 401.108C598.758 401.03 598.774 400.952 598.774 400.874C598.774 400.764 598.719 400.686 598.61 400.639C598.797 400.296 598.93 399.928 599.008 399.538C599.102 399.147 599.165 398.749 599.196 398.343C599.243 397.936 599.282 397.53 599.313 397.124C599.344 396.702 599.415 396.303 599.524 395.928C599.493 395.835 599.469 395.733 599.454 395.624C599.454 395.514 599.454 395.413 599.454 395.319C599.454 395.257 599.446 395.194 599.43 395.132C599.415 395.053 599.422 394.983 599.454 394.921C599.454 394.889 599.461 394.85 599.477 394.803L599.524 394.663C599.555 394.553 599.571 394.444 599.571 394.335C599.586 394.21 599.602 394.085 599.618 393.96C599.649 393.6 599.657 393.233 599.641 392.858C599.641 392.483 599.657 392.108 599.688 391.733C599.641 391.671 599.594 391.624 599.547 391.593C599.5 391.546 599.469 391.483 599.454 391.405C599.579 391.186 599.711 390.983 599.852 390.796C600.008 390.593 600.211 390.436 600.461 390.327C600.508 390.499 600.633 390.585 600.836 390.585C600.93 390.585 601.047 390.561 601.188 390.514C601.329 390.468 601.422 390.405 601.469 390.327C601.735 390.421 602 390.468 602.266 390.468C602.547 390.452 602.805 390.514 603.04 390.655C603.086 390.889 603.149 391.132 603.227 391.382C603.305 391.632 603.415 391.858 603.555 392.061C603.586 392.264 603.618 392.514 603.649 392.811C603.68 393.093 603.711 393.389 603.743 393.702C603.774 393.999 603.821 394.288 603.883 394.569C603.946 394.835 604.032 395.046 604.141 395.202C604.157 395.483 604.204 395.764 604.282 396.046C604.36 396.327 604.446 396.6 604.54 396.866C604.633 397.116 604.711 397.35 604.774 397.569C604.852 397.788 604.891 397.968 604.891 398.108C604.891 398.233 604.868 398.319 604.821 398.366C604.79 398.397 604.758 398.46 604.727 398.553C604.79 398.725 604.875 398.874 604.985 398.999C605.094 399.108 605.211 399.241 605.336 399.397C605.571 400.288 605.875 401.155 606.25 401.999C606.625 402.843 607.079 403.655 607.61 404.436C607.75 404.452 607.86 404.491 607.938 404.553C608.032 404.616 608.172 404.632 608.36 404.6V404.764C608.36 404.921 608.391 405.03 608.454 405.093C608.594 405.186 608.758 405.233 608.946 405.233C609.149 405.233 609.305 405.178 609.415 405.069C609.54 404.944 609.657 404.803 609.766 404.647C609.875 404.491 609.985 404.343 610.094 404.202C610.204 404.061 610.352 403.968 610.54 403.921V403.874C610.54 403.749 610.563 403.647 610.61 403.569C610.672 403.475 610.704 403.374 610.704 403.264C610.875 403.139 611.008 402.983 611.102 402.796C611.196 402.608 611.282 402.421 611.36 402.233C611.438 402.03 611.524 401.843 611.618 401.671C611.727 401.499 611.868 401.358 612.04 401.249C612.258 400.577 612.524 399.952 612.836 399.374C613.149 398.796 613.477 398.21 613.821 397.616C613.821 397.569 613.813 397.522 613.797 397.475C613.782 397.413 613.774 397.358 613.774 397.311C613.774 397.296 613.79 397.225 613.821 397.1C613.899 396.944 613.969 396.796 614.032 396.655C614.094 396.514 614.149 396.358 614.196 396.186C614.352 395.702 614.493 395.225 614.618 394.757C614.758 394.288 614.961 393.843 615.227 393.421V392.835C615.508 392.272 615.704 391.678 615.813 391.053C615.938 390.428 616.086 389.819 616.258 389.225C616.29 389.053 616.344 388.882 616.422 388.71C616.516 388.522 616.625 388.389 616.75 388.311C616.704 388.218 616.68 388.124 616.68 388.03C616.68 387.905 616.696 387.796 616.727 387.702C616.774 387.593 616.813 387.483 616.844 387.374C616.797 387.264 616.774 387.124 616.774 386.952C616.774 386.733 616.836 386.53 616.961 386.343C617.086 386.139 617.274 386.007 617.524 385.944C617.68 385.991 617.813 386.069 617.922 386.178C618.032 386.288 618.133 386.405 618.227 386.53C618.336 386.639 618.446 386.733 618.555 386.811C618.68 386.874 618.836 386.889 619.024 386.858C619.149 387.093 619.235 387.343 619.282 387.608C619.329 387.858 619.352 388.116 619.352 388.382C619.352 388.741 619.321 389.116 619.258 389.507C619.196 389.882 619.172 390.264 619.188 390.655C619.063 390.905 618.969 391.178 618.907 391.475C618.86 391.757 618.813 392.046 618.766 392.343C618.719 392.639 618.665 392.928 618.602 393.21C618.54 393.491 618.43 393.757 618.274 394.007C618.227 394.71 618.172 395.397 618.11 396.069C618.063 396.741 617.985 397.413 617.875 398.085L617.665 399.421C617.633 399.53 617.602 399.655 617.571 399.796C617.54 399.921 617.524 400.03 617.524 400.124C617.524 400.218 617.532 400.319 617.547 400.428C617.563 400.522 617.61 400.593 617.688 400.639C617.579 400.796 617.5 400.983 617.454 401.202C617.407 401.421 617.36 401.655 617.313 401.905L617.196 402.632C617.165 402.866 617.102 403.077 617.008 403.264V403.522C617.008 404.147 616.899 404.788 616.68 405.444V405.561C616.68 405.639 616.672 405.71 616.657 405.772C616.657 405.819 616.657 405.882 616.657 405.96C616.657 406.069 616.688 406.155 616.75 406.218C616.625 406.624 616.508 407.046 616.399 407.483C616.29 407.905 616.211 408.343 616.165 408.796C616.118 409.405 616.11 410.03 616.141 410.671C616.172 411.296 616.094 411.905 615.907 412.499C616 412.78 616.063 413.085 616.094 413.413L616.188 414.397C616.219 414.725 616.266 415.038 616.329 415.335C616.407 415.647 616.547 415.905 616.75 416.108C616.766 416.139 616.774 416.186 616.774 416.249C616.774 416.374 616.743 416.468 616.68 416.53C616.711 416.686 616.766 416.819 616.844 416.928C616.922 417.038 617 417.139 617.079 417.233C617.157 417.343 617.219 417.46 617.266 417.585C617.329 417.71 617.36 417.866 617.36 418.053C617.485 418.225 617.68 418.358 617.946 418.452C618.211 418.546 618.477 418.639 618.743 418.733C619.024 418.827 619.266 418.944 619.469 419.085C619.672 419.241 619.774 419.46 619.774 419.741ZM627.79 414.843C627.79 415.093 627.704 415.319 627.532 415.522C627.36 415.725 627.211 415.921 627.086 416.108C626.868 416.218 626.657 416.28 626.454 416.296C626.266 416.327 626.063 416.382 625.844 416.46C625.766 416.475 625.68 416.53 625.586 416.624C625.461 416.608 625.336 416.553 625.211 416.46C625.086 416.382 624.961 416.327 624.836 416.296C624.665 416.233 624.438 416.194 624.157 416.178C623.891 416.163 623.696 416.085 623.571 415.944C623.352 415.725 623.165 415.436 623.008 415.077C622.868 414.718 622.75 414.335 622.657 413.928C622.579 413.522 622.516 413.124 622.469 412.733C622.438 412.327 622.422 411.975 622.422 411.678C622.422 411.178 622.454 410.678 622.516 410.178C622.579 409.678 622.672 409.194 622.797 408.725V408.608C622.797 408.53 622.797 408.468 622.797 408.421C622.813 408.358 622.821 408.288 622.821 408.21C622.821 408.163 622.813 408.116 622.797 408.069C622.797 408.022 622.774 407.983 622.727 407.952C622.93 407.436 623.079 406.905 623.172 406.358C623.266 405.811 623.336 405.264 623.383 404.718C623.446 404.155 623.508 403.6 623.571 403.053C623.649 402.491 623.758 401.944 623.899 401.413C623.883 401.319 623.868 401.218 623.852 401.108C623.852 400.999 623.852 400.897 623.852 400.803C623.852 400.522 623.883 400.249 623.946 399.983C624.008 399.702 624.047 399.413 624.063 399.116C624.079 399.022 624.079 398.928 624.063 398.835C624.047 398.725 624.04 398.616 624.04 398.507C624.04 397.819 624.071 397.147 624.133 396.491C624.211 395.835 624.25 395.171 624.25 394.499C624.25 394.139 624.219 393.796 624.157 393.468C624.11 393.124 624.086 392.78 624.086 392.436C624.086 392.28 624.094 392.132 624.11 391.991C624.125 391.835 624.172 391.694 624.25 391.569C624.594 391.335 625 391.218 625.469 391.218C625.813 391.218 626.11 391.311 626.36 391.499C626.344 391.53 626.336 391.577 626.336 391.639C626.336 391.718 626.344 391.788 626.36 391.85C626.375 391.913 626.383 391.983 626.383 392.061V392.155C626.383 392.186 626.375 392.218 626.36 392.249C626.469 392.436 626.54 392.639 626.571 392.858C626.618 393.061 626.641 393.272 626.641 393.491C626.641 393.694 626.633 393.897 626.618 394.1C626.602 394.288 626.594 394.483 626.594 394.686C626.594 394.968 626.594 395.249 626.594 395.53C626.61 395.811 626.618 396.093 626.618 396.374C626.618 397.124 626.579 397.866 626.5 398.6C626.438 399.319 626.391 400.053 626.36 400.803C626.329 401.444 626.243 402.069 626.102 402.678C625.977 403.288 625.891 403.905 625.844 404.53C625.829 404.655 625.821 404.78 625.821 404.905C625.836 405.014 625.844 405.139 625.844 405.28C625.844 405.639 625.774 405.999 625.633 406.358C625.493 406.702 625.422 407.069 625.422 407.46C625.422 407.647 625.454 407.811 625.516 407.952C625.422 408.202 625.336 408.499 625.258 408.843C625.196 409.186 625.133 409.546 625.071 409.921C625.024 410.28 624.985 410.639 624.954 410.999C624.922 411.343 624.907 411.647 624.907 411.913C624.907 412.288 624.954 412.671 625.047 413.061C625.141 413.436 625.297 413.78 625.516 414.093C625.672 414.139 625.86 414.163 626.079 414.163C626.297 414.163 626.516 414.171 626.735 414.186C626.954 414.202 627.157 414.241 627.344 414.303C627.532 414.366 627.672 414.491 627.766 414.678C627.782 414.71 627.79 414.741 627.79 414.772V414.843Z" fill="white"/>
<defs>
<filter id="filter0_d_1_738" x="250.687" y="45.717" width="721.622" height="721.596" filterUnits="userSpaceOnUse" color-interpolation-filters="sRGB">
<feFlood flood-opacity="0" result="BackgroundImageFix"/>
<feColorMatrix in="SourceAlpha" type="matrix" values="0 0 0 0 0 0 0 0 0 0 0 0 0 0 0 0 0 0 127 0" result="hardAlpha"/>
<feOffset dy="4"/>
<feGaussianBlur stdDeviation="2"/>
<feComposite in2="hardAlpha" operator="out"/>
<feColorMatrix type="matrix" values="0 0 0 0 0 0 0 0 0 0 0 0 0 0 0 0 0 0 0.25 0"/>
<feBlend mode="normal" in2="BackgroundImageFix" result="effect1_dropShadow_1_738"/>
<feBlend mode="normal" in="SourceGraphic" in2="effect1_dropShadow_1_738" result="shape"/>
</filter>
</defs>
</svg>
